<svg version="1.2" xmlns="http://www.w3.org/2000/svg" viewBox="0 0 844 893" width="844" height="893"><style>.s0{fill:#02a9f7}</style><path class="s0" d="m116.4 599.2q2.2 4.3 4.4 8.6q-2.2-4.3-4.4-8.6z" /><path class="s0" d="m164.5 670.8q6.1 7.1 12.6 13.7q-6.5-6.6-12.6-13.7z" /><path class="s0" d="m177.1 684.5q2.6 2.7 5.3 5.3q-2.7-2.6-5.3-5.3z" /><path class="s0" d="m187.1 694.4v0.1q-2.4-2.3-4.7-4.7q2.3 2.4 4.7 4.6z" /><path class="s0" d="m554 115l-16.8 9.7q-13.5-4.9-27.4-8.6h-0.1q-3.4-0.9-7-1.8q-1.7-0.4-3.5-0.8q-1.8-0.4-3.6-0.8q-1.7-0.4-3.5-0.8q-1.8-0.3-3.6-0.7q-1.4-0.3-2.8-0.5q-0.7-0.2-1.3-0.3q-1.4-0.2-2.9-0.5q-0.1 0-0.2 0q-3.6-0.7-7.2-1.2q-4.5-0.7-9.1-1.3q-4.6-0.5-9.2-1q-2.9-0.3-5.7-0.5q-2.7-0.2-5.4-0.4q-2.6-0.2-5.3-0.3q-2.7-0.2-5.5-0.3q-0.6 0-1.2 0q-1.4 0-2.7-0.1q-0.3 0-0.7 0q-1.7 0-3.4 0q-1.9 0-3.7-0.1q-11.1 0-22 0.7q-2 0.2-4 0.3q-4.1 0.3-8.1 0.7q-2.1 0.2-4.1 0.5q-0.7 0-1.5 0.1q-1.7 0.2-3.4 0.4q-2.3 0.3-4.7 0.7q-4.1 0.5-8.1 1.2q-2.3 0.4-4.6 0.8q-1.9 0.3-3.9 0.7q-2.2 0.5-4.5 0.9q-2.1 0.4-4.1 0.9q-8.3 1.8-16.4 4q-2.1 0.6-4.1 1.1q0 0 0 0q-4.1 1.2-8.1 2.4q-4 1.3-8 2.6q-3.9 1.4-7.8 2.8q-4 1.5-7.8 3h-0.1q-3.3 1.3-6.5 2.7q-4.4 1.8-8.8 3.8q-3.8 1.7-7.5 3.5q0 0 0 0q-3.7 1.8-7.4 3.7q0 0 0 0q-3.7 1.9-7.3 3.8v0.1q-3.6 1.9-7.2 4q0 0 0 0q-3.6 2.1-7.1 4.2q0 0 0 0q-1.8 1.1-3.5 2.2q-1.8 1-3.5 2.2q-3.5 2.2-6.9 4.5q0 0 0 0q-1.7 1.1-3.4 2.3q-1.3 0.9-2.5 1.8q-0.1 0-0.1 0.1q-0.6 0.4-1.2 0.8q-1.5 1-2.9 2.1q-3.3 2.4-6.6 4.9q0 0 0 0q-1.6 1.3-3.3 2.6q-1.6 1.2-3.1 2.5q-3.2 2.6-6.4 5.2q-1.5 1.3-3.1 2.7q-1.4 1.2-2.8 2.4q-0.5 0.5-1 1q-1.2 1-2.3 2q-1.5 1.3-2.9 2.7q-0.1 0.1-0.2 0.1q0 0.1-0.1 0.1q-0.9 0.9-1.8 1.8q-0.2 0.2-0.4 0.4q-0.6 0.5-1.1 1q-1.1 1-2.1 2l-0.2 0.2q-0.3 0.3-0.6 0.6q-1.3 1.2-2.5 2.5q-1.5 1.4-2.9 2.9q-1.4 1.5-2.8 2.9q-1.5 1.5-2.9 3q-2.8 3-5.5 6.1q-2.1 2.4-4.1 4.8q-1.8 2-3.5 4.1q-1.5 1.8-3 3.6q-0.8 1-1.5 2q-1.4 1.6-2.6 3.3q-1.8 2.2-3.4 4.5q-2.5 3.3-4.9 6.6q-1.9 2.7-3.7 5.4q-1 1.4-1.9 2.7q-0.7 1.1-1.4 2.1q-1.1 1.7-2.2 3.4q-2.2 3.5-4.4 7q-1 1.8-2.1 3.6q-1.2 2-2.3 4q-0.8 1.3-1.5 2.6q-0.5 0.9-1 1.7q-1.5 2.7-3 5.5q-0.3 0.7-0.7 1.3q-0.6 1.3-1.3 2.6q-0.7 1.5-1.5 2.9q-0.6 1.2-1.1 2.3q-0.8 1.5-1.5 3.1q-1.4 2.9-2.7 5.8q-0.5 0.9-0.9 1.8q-0.6 1.5-1.3 3q-0.1 0.2-0.2 0.5q-0.5 1.1-1 2.2q-0.4 1-0.8 2q-0.7 1.6-1.3 3.2q-0.8 1.9-1.6 3.9q-1.5 3.8-3 7.7q-1.4 4-2.7 7.9q-1.4 4-2.6 8q-1.3 4-2.4 8.1q-0.7 2.4-1.4 4.8q-0.1 0.4-0.2 0.8q-0.5 1.9-1 3.7q-0.2 0.9-0.4 1.7q-0.4 1.7-0.8 3.3q-0.2 0.7-0.3 1.4q-0.6 2.4-1.1 4.8q-0.9 4.1-1.7 8.3q-0.8 4.2-1.5 8.4q-0.7 4.2-1.3 8.5q-0.3 2.1-0.6 4.2q0 0.1 0 0.2q-0.2 1.9-0.5 3.8q0 0.3 0 0.6q-0.3 2-0.4 3.9q-0.1 0.1-0.1 0.2q-0.2 2.1-0.4 4.3q-0.2 2.1-0.3 4.3q-0.2 1.7-0.3 3.4q0 0.6-0.1 1.3q-0.2 3.9-0.4 7.8q0 0.5 0 0.9q-0.1 1.6-0.1 3.3q0 0.7 0 1.4q-0.1 1.9-0.1 3.7q0 2.2 0 4.4q0 1.9 0 3.8q0 0.6 0 1.3q0 0.3 0 0.7q0 0.5 0 1q0.1 1.4 0.1 2.8q0 1.2 0.1 2.4q0 0.3 0 0.6q0 0.9 0.1 1.8q0 1.4 0.1 2.8q0 0.9 0.1 1.7q0 1.3 0.1 2.6v0.1q0.1 1.5 0.2 3q0.1 0.8 0.2 1.6v0.1q0 1.1 0.2 2.2q0 0.4 0 0.7q0.1 0.9 0.2 1.7q0.2 2.4 0.4 4.7q0.1 0.7 0.2 1.5q0.1 1.7 0.4 3.5q0.3 2.5 0.6 4.9q0.2 1.3 0.3 2.5q0.2 1.3 0.4 2.5q0.4 2.5 0.8 4.9q0 0 0 0q0.4 2.4 0.8 4.8q0 0.1 0 0.3q0.1 0.3 0.2 0.7q0.1 0.8 0.3 1.6q0.2 1.2 0.4 2.4q0.2 1.2 0.5 2.4q0.2 1.3 0.5 2.5q0.4 2.2 0.9 4.4q0.1 0.4 0.2 0.9q0.6 2.3 1.1 4.6q0.5 2.2 1.1 4.5q0.3 1.1 0.6 2.3q0.3 1.1 0.6 2.3q0.1 0.3 0.2 0.6q0.6 2.2 1.2 4.3q0.3 1.1 0.7 2.3q0.3 1.2 0.7 2.4q0.7 2.3 1.4 4.6q0.8 2.4 1.5 4.7q0.4 1.2 0.9 2.5q0.6 1.7 1.1 3.3q0.5 1.3 1 2.6q0.5 1.4 1 2.8q0.5 1.3 1 2.5q0.4 1.1 0.8 2.2q0.4 1.1 0.8 2.2q0.2 0.3 0.3 0.7q0.8 1.9 1.6 3.8q0.1 0.2 0.1 0.4q0.1 0.2 0.2 0.4q0.8 1.8 1.5 3.5q0.2 0.4 0.3 0.7q0.6 1.5 1.3 2.9q0.5 1.1 0.9 2.1q0.8 1.8 1.7 3.6q0.3 0.6 0.5 1.2q0.7 1.3 1.3 2.7q0.1 0.1 0.1 0.1q0.2 0.5 0.5 1q0.8 1.8 1.7 3.5q2.2 4.3 4.4 8.6q0.8 1.4 1.6 2.8q0 0 0 0q0.9 1.7 1.9 3.5q0.7 1.2 1.4 2.3q0.8 1.5 1.6 2.9q1.7 2.9 3.5 5.7q0.4 0.7 0.8 1.4q0.5 0.8 0.9 1.5q0.9 1.4 1.8 2.8q1.8 2.7 3.6 5.4q1 1.5 1.9 2.9q1 1.4 1.9 2.7q1 1.4 1.9 2.7q1.5 2.1 3 4.1q1.4 2 2.9 4q1 1.3 2.1 2.6q1 1.3 2 2.6q2.1 2.6 4.2 5.2q1 1.3 2.1 2.6q1 1.2 2.1 2.5q1.2 1.4 2.5 2.8q6.1 7.1 12.6 13.7q2.6 2.7 5.3 5.3q1.1 1.2 2.3 2.4q1.2 1.1 2.4 2.3l-13.6 7.8c-66.7-64.8-108.1-155.4-108.1-255.8q0-1.7 0-3.5q0.1-0.7 0.1-1.4q0-1.6 0-3.1q0.1-0.9 0.1-1.8q0-0.1 0-0.2q0-1.3 0-2.5q0-0.1 0.1-0.2q0-1 0-1.9q0.1-2.4 0.3-4.9q0.1-2.4 0.2-4.8q0.1-1.2 0.2-2.4q0.1-1.2 0.2-2.4q0.2-2.4 0.4-4.8q0.3-2.4 0.5-4.8q0.3-2.4 0.6-4.7q0.3-2.4 0.6-4.8q0.3-2.3 0.6-4.7q0.4-2.4 0.8-4.7q0.4-2.3 0.8-4.7q0.4-2.3 0.8-4.6q0.4-2.4 0.9-4.7q0.2-0.6 0.3-1.3q0-0.2 0.1-0.5q0.3-1.4 0.6-2.8q0 0 0-0.1q0.5-2.1 1-4.2q0.4-1.7 0.8-3.4q0-0.1 0-0.1q0.1-0.3 0.1-0.7q0.1 0 0.1-0.1q0 0 0 0q1-4.3 2.2-8.6q0 0 0 0q0.4-1.6 0.9-3.3q0.4-1.5 0.9-3q0.4-1.6 0.9-3.2q0.5-1.6 1-3.1q0.4-1.4 0.9-2.8q0.1-0.5 0.2-0.9q0.1-0.2 0.2-0.5q0 0 0 0q0.7-2.1 1.4-4.2q0.6-1.7 1.2-3.4q0.3-0.9 0.6-1.8q0.2-0.6 0.4-1.2q0.4-1.1 0.8-2.1q0.5-1.4 1-2.9q0.5-1.2 1-2.5q0.1-0.2 0.2-0.5q0.3-0.8 0.6-1.6q0.1-0.1 0.1-0.1q0-0.1 0.1-0.3q0 0 0-0.1q0.1-0.2 0.2-0.3q0.1-0.4 0.2-0.7q0.1-0.3 0.3-0.7q0.6-1.5 1.2-3q0.4-1 0.9-2.1q0.1-0.2 0.2-0.5q0.5-1.2 1-2.3q0.3-0.6 0.5-1.3q0.6-1.2 1.1-2.5q0.7-1.5 1.4-3q3.4-7.6 7.3-15.1q0.9-1.9 1.9-3.8q1.1-1.9 2.1-3.8q1-1.9 2.1-3.8q1-1.9 2.1-3.7q2.1-3.8 4.4-7.4q2.8-4.6 5.7-9.1q1.2-1.9 2.5-3.8q3.1-4.7 6.4-9.3q1-1.3 1.9-2.7q0.2-0.2 0.3-0.3q1.2-1.7 2.4-3.3q1.7-2.2 3.4-4.4q0.2-0.3 0.4-0.6q1.3-1.7 2.6-3.4q0.3-0.3 0.6-0.6q0.6-0.7 1.1-1.5q0.3-0.3 0.7-0.7q0.4-0.5 0.8-1.1q1-1.1 1.9-2.3q0.5-0.5 1-1.1q0.4-0.6 0.9-1.2q0.4-0.4 0.7-0.8q0.1 0 0.1-0.1q0.1-0.1 0.2-0.2q0.8-1 1.7-2q0.2-0.3 0.5-0.5q1.2-1.4 2.3-2.7q1.5-1.6 2.9-3.2q1.4-1.6 2.9-3.2q1.2-1.3 2.5-2.6q0.5-0.6 1.1-1.2q0.3-0.3 0.7-0.7q0.8-0.8 1.6-1.7q0.6-0.6 1.2-1.2q1.4-1.4 2.9-2.9q0.2-0.2 0.4-0.4q1.5-1.5 3.1-3q0.5-0.5 1-1q1.8-1.7 3.7-3.4q1.5-1.5 3.1-2.9q1.6-1.5 3.2-2.9q1.8-1.6 3.7-3.2q0.9-0.8 1.7-1.5q0.5-0.4 1-0.8q1.9-1.7 3.9-3.3q0.6-0.5 1.3-1q0.7-0.6 1.5-1.2q1.5-1.2 2.9-2.4q0.4-0.3 0.7-0.5q0.8-0.6 1.5-1.2q0.8-0.6 1.6-1.2q0.2-0.2 0.4-0.3q0.1-0.1 0.3-0.3q1.4-1 2.7-2q3.5-2.6 7-5.1q1.4-1 2.9-2.1q0.7-0.4 1.4-0.9q0 0 0 0q1.2-0.8 2.4-1.6q0.5-0.4 1-0.7q1.1-0.8 2.2-1.5q0.2-0.1 0.3-0.2q1.1-0.7 2.2-1.5q2.7-1.7 5.4-3.4q3.7-2.3 7.4-4.5q3.7-2.2 7.4-4.3q0 0 0.1 0q3.7-2.1 7.5-4.1q3.9-2 7.7-3.9q3.9-1.9 7.8-3.8q3.9-1.8 7.9-3.5q8-3.5 16.1-6.6q4.1-1.6 8.2-3q1.5-0.6 3.1-1.1q0.7-0.2 1.4-0.5q0.2 0 0.4-0.1q0.3-0.1 0.7-0.2q2.1-0.8 4.3-1.4q0.4-0.2 0.8-0.3q0.3-0.1 0.6-0.2q2.2-0.7 4.3-1.3q0.8-0.3 1.6-0.5q1.9-0.5 3.7-1.1q4.2-1.2 8.5-2.3q1.1-0.2 2.1-0.5q1.1-0.3 2.2-0.5q1.1-0.3 2.1-0.6q1.1-0.2 2.2-0.5q2.2-0.5 4.3-0.9q0.7-0.2 1.4-0.3q1.5-0.3 3-0.6q1.7-0.4 3.3-0.7q0.4-0.1 0.8-0.2q0.8-0.1 1.6-0.3q0.1 0 0.2 0q0.8-0.2 1.6-0.3q0.5-0.1 0.9-0.2q0.4 0 0.8-0.1q1.5-0.3 3-0.5q1.7-0.3 3.4-0.6q3.2-0.5 6.4-0.9q2.2-0.3 4.4-0.6q4.5-0.6 9-1.1q1.4-0.1 2.8-0.2q0.5-0.1 1-0.1q0.5-0.1 1.1-0.1q0.9-0.1 1.7-0.2q0.5 0 0.9 0q0.7-0.1 1.5-0.2q1.8-0.1 3.6-0.2q0 0 0.1 0q0 0 0.1 0q0.6-0.1 1.3-0.1q1.8-0.1 3.5-0.2q0.4 0 0.8 0q0.2-0.1 0.4-0.1q2-0.1 3.9-0.1q4.5-0.2 9.2-0.3q2.2 0 4.6 0q4.1 0 8.3 0.1q1.7 0 3.3 0.1q0.8 0 1.5 0q1.3 0.1 2.5 0.1q1.1 0.1 2.2 0.1q1.9 0.1 3.8 0.3q2.2 0.1 4.3 0.2q2.2 0.2 4.3 0.4q4.3 0.3 8.5 0.8q2.2 0.2 4.3 0.5q4.2 0.5 8.4 1.1q4.2 0.6 8.4 1.3q2 0.3 4.1 0.7q4.2 0.8 8.3 1.6q4.1 0.9 8.2 1.8q1.7 0.4 3.5 0.8q0.9 0.3 1.9 0.5q0.8 0.2 1.6 0.4q0.5 0.1 1 0.3q0.1 0 0.1 0q2 0.5 4 1q1.7 0.5 3.3 0.9q0 0 0.1 0.1q1.2 0.3 2.4 0.7q0.3 0 0.6 0.1q0.8 0.2 1.6 0.5q2 0.6 4 1.2q4 1.2 7.9 2.5q2 0.7 3.9 1.3q2 0.7 3.9 1.4q3.9 1.4 7.8 2.9q1.9 0.7 3.8 1.5z" /><path class="s0" d="m201 353.3q-0.1 0.1-0.2 0.2q0.4-0.5 0.7-0.9q0.4-0.5 0.7-1q-0.1 0.2-0.2 0.3q-0.5 0.7-1 1.4z" /><path class="s0" d="m202.8 535.4q0.3 0.3 0.5 0.6q-0.2-0.3-0.5-0.6z" /><path class="s0" d="m208.1 344.5q-0.6 0.6-1.2 1.3q0.3-0.3 0.6-0.7q0.3-0.3 0.6-0.6z" /><path class="s0" d="m209.6 342.7q-0.4 0.5-0.9 1.1q0.3-0.4 0.6-0.8q0.8-0.9 1.7-1.8q-0.7 0.8-1.4 1.5z" /><path class="s0" d="m216.5 550.7q0.6 0.6 1.3 1.3q-0.3-0.3-0.6-0.6q0 0 0 0q0 0 0 0q0 0-0.1-0.1q-0.3-0.3-0.6-0.6z" /><path class="s0" d="m218 334.1h-0.1q0 0 0.1 0q0.2-0.2 0.4-0.4q-0.2 0.2-0.4 0.4z" /><path class="s0" d="m219.8 332.4q0 0 0 0q0 0 0 0q0.9-0.8 1.8-1.7q-0.9 0.9-1.8 1.7z" /><path class="s0" d="m220.6 554.6q0.8 0.7 1.6 1.4q-0.3-0.3-0.7-0.6q-0.4-0.4-0.9-0.8z" /><path class="s0" d="m222.2 556q0.6 0.5 1.1 1q0 0-0.1-0.1q-0.5-0.4-1-0.9z" /><path class="s0" d="m221.6 330.7q0 0 0 0q1-0.8 1.9-1.6q-0.9 0.8-1.9 1.6z" /><path class="s0" d="m225.5 327.4q0 0 0 0q0 0 0 0q0.8-0.6 1.6-1.3q-0.8 0.7-1.6 1.3z" /><path class="s0" d="m233.6 321.1q-0.1 0.1-0.2 0.2q0.4-0.3 0.9-0.6q-0.4 0.2-0.7 0.4z" /><path class="s0" d="m235 320.2q-0.4 0.2-0.7 0.5q0 0 0-0.1q0.3-0.1 0.5-0.3q0.1-0.1 0.1-0.1q0 0 0.1 0z" /><path class="s0" d="m236.1 319.4q-0.6 0.4-1.1 0.8q0.3-0.2 0.6-0.5q0.3-0.2 0.5-0.3z" /><path class="s0" d="m246.5 312.8q-2.7 1.6-5.3 3.2q2.6-1.7 5.3-3.2z" /><path class="s0" d="m260.6 435.6q0 0.4-0.1 0.8q0 0.2 0 0.4q0-0.6 0.1-1.2z" /><path class="s0" d="m267.4 472.2q0.5 0.9 1 1.7q-0.1-0.1-0.2-0.3q-0.3-0.5-0.6-1.1q-0.1-0.1-0.2-0.3z" /><path class="s0" d="m269 411.3q-0.4 0.7-0.9 1.5q0.1-0.1 0.1-0.1q0.4-0.7 0.8-1.4z" /><path class="s0" d="m271.7 479.1q-0.4-0.7-0.8-1.3q0.4 0.7 0.9 1.4q0-0.1-0.1-0.1z" /><path class="s0" d="m276.1 586.5q1 0.3 2 0.6q-0.1 0-0.2 0q-0.9-0.3-1.8-0.6z" /><path class="s0" d="m278.3 486.8q-0.6-0.6-1.2-1.2q0.8 0.8 1.5 1.5q-0.2-0.2-0.3-0.3z" /><path class="s0" d="m278.9 487.4q-0.2-0.2-0.3-0.3q0.7 0.7 1.4 1.4q-0.2-0.2-0.4-0.4q-0.2-0.2-0.4-0.4q-0.1-0.1-0.3-0.3z" /><path class="s0" d="m280.4 488.8q-0.2-0.2-0.4-0.3q0.8 0.7 1.6 1.3q-0.4-0.3-0.8-0.6q-0.2-0.2-0.4-0.4z" /><path class="s0" d="m281.8 490q-0.1-0.1-0.2-0.2q0.7 0.7 1.5 1.3q0.8 0.7 1.6 1.2q0.8 0.7 1.6 1.2q0.9 0.6 1.7 1.2q-0.4-0.3-0.9-0.6q-0.2-0.2-0.5-0.4q-0.4-0.2-0.8-0.5q-0.5-0.4-1.1-0.8q-0.1-0.1-0.2-0.2q-0.6-0.5-1.2-1q-0.1 0-0.2-0.1q0 0 0 0q-0.7-0.5-1.3-1.1z" /><path class="s0" d="m288 494.7q0 0 0 0q0.8 0.5 1.7 1q-0.2 0-0.3-0.1q-0.7-0.5-1.4-0.9z" /><path class="s0" d="m290.6 496.3q-0.5-0.3-0.9-0.6q0.8 0.5 1.7 1q0.9 0.5 1.8 1q0.8 0.4 1.6 0.8q-0.7-0.3-1.4-0.7q-0.6-0.3-1.2-0.6q-0.1-0.1-0.2-0.1q-0.6-0.4-1.2-0.7q-0.1-0.1-0.2-0.1z" /><path class="s0" d="m297.7 499.8q-0.4-0.1-0.7-0.3q0.7 0.3 1.4 0.6q-0.4-0.1-0.7-0.3z" /><path class="s0" d="m298.7 500.2q0.9 0.4 1.7 0.7q0.8 0.3 1.6 0.6q-0.7-0.3-1.5-0.5q-0.7-0.3-1.4-0.6q-0.2-0.1-0.4-0.2z" /><path class="s0" d="m302.5 501.6q0.2 0.1 0.3 0.1q-0.3 0-0.5-0.1q0.1 0 0.2 0z" /><path class="s0" d="m303.5 501.9q-0.4-0.1-0.7-0.2q0.4 0.2 0.9 0.3q-0.1 0-0.2-0.1z" /><path class="s0" d="m304.6 502.3q0.8 0.2 1.5 0.4q-0.8-0.2-1.5-0.4q0 0 0 0z" /><path class="s0" d="m306.5 502.8q-0.2 0-0.4-0.1q0.6 0.2 1.3 0.3q-0.5-0.1-0.9-0.2z" /><path class="s0" d="m311 503.8q-0.3-0.1-0.5-0.1q0.5 0.1 1 0.2q-0.2-0.1-0.5-0.1z" /><path class="s0" d="m312.1 504q0.4 0 0.8 0.1q0.2 0 0.4 0q-0.2 0-0.3 0q-0.2 0-0.5-0.1q-0.2 0-0.3 0q-0.1 0-0.1 0z" /><path class="s0" d="m314.8 504.3q0.6 0.1 1.1 0.1q0.7 0.1 1.4 0.2q-0.1 0-0.1 0q-0.8-0.1-1.6-0.2q-0.4 0-0.8-0.1z" /><path class="s0" d="m318.7 504.7q-0.2-0.1-0.3-0.1q0.3 0.1 0.6 0.1q-0.2 0-0.3 0z" /><path class="s0" d="m320 504.7h0.1q0 0 0.1 0q-0.1 0-0.2 0z" /><path class="s0" d="m322 504.7q0.7 0 1.4 0q-0.2 0-0.4 0q-0.5 0-1 0z" /><path class="s0" d="m323.4 504.7q0.1 0 0.2 0h0.2q-0.2 0-0.4 0z" /><path class="s0" d="m324.3 504.7q0.7 0 1.4-0.1q0.5 0 1-0.1q-0.6 0.1-1.2 0.1q-0.6 0.1-1.2 0.1z" /><path class="s0" d="m327.7 504.5q0.1-0.1 0.3-0.1q0.6 0 1.2-0.1q-0.7 0.1-1.5 0.2z" /><path class="s0" d="m331.4 504q0.2 0 0.4-0.1q0.6-0.1 1.3-0.2h-0.3q-0.2 0.1-0.6 0.1q-0.3 0.1-0.6 0.2q-0.6 0.1-1.2 0.1q0 0 0 0q-0.2 0.1-0.5 0.1q0.8-0.1 1.5-0.2z" /><path class="s0" d="m333.2 503.7q0.1 0 0.1-0.1q0 0.1 0.1 0q-0.1 0.1-0.2 0.1z" /><path class="s0" d="m336.7 502.9q-0.2 0.1-0.3 0.1q0.2-0.1 0.4-0.1q0 0-0.1 0z" /><path class="s0" d="m347 499.3q0 0 0 0q1-0.4 1.9-0.9q-0.6 0.4-1.2 0.6q-0.2 0.1-0.4 0.2q-0.1 0.1-0.3 0.1q0 0 0 0z" /><path class="s0" d="m388.5 578q0.1 0 0.1-0.1q0 0 0 0.1q-0.1 0-0.1 0z" /><path class="s0" d="m457.1 293.9v-0.1q1.5-0.7 3.1-1.5q-1.6 0.8-3.1 1.6z" /><path class="s0" d="m483.7 420.8q0 0 0 0z" /><path class="s0" d="m487.8 418.7q0.1-0.1 0.3-0.1q0.1-0.1 0.3-0.2q-0.4 0.2-0.9 0.4q0.1 0 0.3-0.1z" /><path class="s0" d="m503.5 410.3q0 0 0 0q0 0 0 0z" /><path class="s0" d="m505.2 409.7q0 0 0 0q0 0 0 0q0 0 0 0z" /><path class="s0" d="m506.8 409.3q0.1-0.1 0.2-0.1q0.2-0.1 0.5-0.1q-0.4 0.1-0.7 0.2z" /><path class="s0" d="m507.6 409.1q0.4-0.1 0.9-0.2q-0.5 0.1-0.9 0.2z" /><path class="s0" d="m508.6 408.8q0.1 0 0.1 0q0.6-0.1 1.1-0.2q-0.6 0.1-1.2 0.2z" /><path class="s0" d="m510.2 408.5q0.1 0 0.2 0q-0.1 0-0.2 0q0 0 0 0z" /><path class="s0" d="m511.5 408.3q0.3-0.1 0.7-0.1q-0.9 0.1-1.8 0.3q0 0 0 0q0.5-0.1 1.1-0.2z" /><path class="s0" d="m512.2 408.2q0.1 0 0.1 0q0.3-0.1 0.7-0.1q-0.4 0.1-0.8 0.1z" /><path class="s0" d="m513.1 408.1q0.1 0 0.2 0q0.2-0.1 0.4-0.1q-0.3 0.1-0.6 0.1z" /><path class="s0" d="m514.6 407.9q0 0 0.1 0q0.3 0 0.7 0q-0.8 0-1.5 0.1q0.1 0 0.2 0q0.2 0 0.5-0.1z" /><path class="s0" d="m526.8 408.7q0.5 0.1 1.1 0.2q0.1 0.1 0.3 0.1q-1.6-0.4-3.3-0.6q-0.2-0.1-0.4-0.1q-1.8-0.3-3.6-0.4q-0.7 0-1.5-0.1q-0.3 0-0.6 0h-0.3q-0.4 0-0.9 0q0.8 0 1.6 0q0.4 0 0.8 0.1h0.1q0.2 0 0.4 0q0.1 0 0.2 0h0.1q0 0 0 0q0.3 0 0.5 0q0.5 0.1 1 0.1q0.7 0.1 1.4 0.2q1.2 0.1 2.4 0.4q0 0 0 0q0 0 0 0q0.4 0 0.7 0.1z" /><path class="s0" d="m530.7 409.7q0.5 0.1 0.9 0.3q-1.6-0.6-3.2-1q0.5 0.1 0.9 0.3q0.7 0.1 1.3 0.3q0.1 0.1 0.1 0.1z" /><path class="s0" d="m532.1 410.1q0.3 0.1 0.6 0.2q-0.5-0.2-1.1-0.3q0.3 0 0.5 0.1z" /><path class="s0" d="m536.1 411.6q0.4 0.2 0.8 0.4q-1.5-0.7-3.1-1.3q-0.6-0.2-1.1-0.4q0.3 0.1 0.7 0.2q0 0.1 0 0.1q0.7 0.2 1.4 0.5q0.5 0.2 1.1 0.4q0.1 0.1 0.2 0.1z" /><path class="s0" d="m539.9 413.6q0.2 0.1 0.4 0.2q-1.7-1-3.4-1.8q0.3 0.1 0.5 0.2q0.6 0.3 1.2 0.7q0.1 0 0.1 0q0.6 0.3 1.2 0.7z" /><path class="s0" d="m540.3 413.8q0.4 0.2 0.9 0.5q0.2 0.2 0.5 0.3q-0.7-0.4-1.4-0.8z" /><path class="s0" d="m542.2 415q0.7 0.4 1.3 0.8q-0.8-0.5-1.6-1q0.2 0.1 0.3 0.2z" /><path class="s0" d="m543.6 415.9q0.1 0 0.2 0.1q-0.1 0-0.2-0.1q-0.1 0-0.1-0.1q0 0.1 0.1 0.1z" /><path class="s0" d="m546 417.7q0.5 0.5 1 0.9q-1.6-1.4-3.2-2.6q0.5 0.4 1.1 0.8q0.5 0.4 1 0.8q0.1 0.1 0.1 0.1z" /><path class="s0" d="m547.6 485.4q0.2-0.2 0.5-0.4q-0.1 0.1-0.1 0.1q-0.2 0.2-0.4 0.3z" /><path class="s0" d="m548.1 419.5q0.1 0.1 0.1 0.1q0 0-0.1-0.1q-0.4-0.3-0.8-0.7q0.4 0.3 0.8 0.7q0 0 0 0z" /><path class="s0" d="m549.4 420.8q0.2 0.1 0.3 0.3q-0.4-0.4-0.8-0.8q0.3 0.2 0.5 0.5z" /><path class="s0" d="m550.4 421.7q0 0.1 0.1 0.2q-0.4-0.4-0.8-0.8q0 0 0 0q0.2 0.2 0.4 0.4q0.1 0.1 0.3 0.2z" /><path class="s0" d="m550.5 421.9q0.4 0.4 0.7 0.8q-0.4-0.4-0.7-0.8q0 0 0 0z" /><path class="s0" d="m552.7 424.5q0.1 0.1 0.2 0.2q-0.1-0.2-0.2-0.3q0 0 0 0.1z" /><path class="s0" d="m552.9 424.7z" /><path class="s0" d="m554.2 426.5q0.4 0.5 0.7 0.9q-0.3-0.4-0.7-0.9z" /><path class="s0" d="m557.5 472.7q0.2-0.4 0.4-0.8q-0.3 0.6-0.6 1.2q0.1-0.2 0.2-0.4z" /><path class="s0" d="m558.3 471q0.4-0.9 0.8-1.8q-0.3 0.7-0.6 1.3q-0.1 0.3-0.2 0.5q-0.2 0.4-0.4 0.9q0.2-0.5 0.4-0.9z" /><path class="s0" d="m559.8 467.4q0.2-0.4 0.3-0.9q0 0.1-0.1 0.3q0 0.2-0.1 0.4q0 0 0 0q0 0 0 0.1q0 0 0 0q-0.1 0-0.1 0q0 0.3-0.2 0.6q-0.2 0.6-0.5 1.3q0.4-0.9 0.7-1.8z" /><path class="s0" d="m559.9 437.4q-0.1-0.3-0.2-0.6q-0.3-0.7-0.6-1.4q0.3 0.5 0.5 1q0.1 0.5 0.3 1z" /><path class="s0" d="m560.2 438.2q-0.2-0.4-0.3-0.8q0 0.1 0.1 0.1q0 0.1 0 0.2q0 0 0 0.1q0.1 0.1 0.1 0.2q0.1 0.2 0.2 0.5q-0.1-0.2-0.1-0.3z" /><path class="s0" d="m560.1 466.5q0.2-0.4 0.3-0.7q0 0 0 0q-0.1 0.1-0.1 0.1q0 0 0 0q0 0.1 0 0.1q0 0.1-0.1 0.2q0 0.1-0.1 0.3z" /><path class="s0" d="m561.1 441.4q-0.1-0.4-0.2-0.9q0.1 0.4 0.2 0.8q0.1 0.2 0.1 0.4q0 0.2 0.1 0.3q0.1 0.7 0.3 1.4q0 0 0 0q0.1 0.4 0.1 0.8q0.2 0.7 0.3 1.3q-0.2-1.3-0.5-2.6q-0.1-0.1-0.1-0.2q-0.1-0.6-0.3-1.3z" /><path class="s0" d="m561 463.7q0.2-1 0.5-2.1q-0.1 0.5-0.2 1q-0.2 0.6-0.3 1.1q-0.1 0.5-0.3 0.9q-0.1 0.3-0.2 0.6q0 0.3-0.1 0.6q0-0.1 0-0.2q0.3-0.9 0.6-1.9z" /><path class="s0" d="m561.9 459.3q0.1-0.8 0.2-1.6q-0.1 1-0.3 2q0.1-0.2 0.1-0.4z" /><path class="s0" d="m562.4 449.6q-0.1-1.5-0.3-3q0-0.3-0.1-0.5q0.1 0.4 0.2 0.8q0 0.6 0.1 1.1q0 0.7 0.1 1.4q0 0.1 0 0.2z" /><path class="s0" d="m562.4 455.1q0.1-1.4 0.1-2.9q0 1.5-0.1 2.9z" /><path class="s0" d="m562.5 450.9q0 0-0.1-0.1q0-0.4 0-0.9q0 0.5 0.1 1z" /><path class="s0" d="m592.8 133.2l-15.4 8.9q-9.5-4.9-19.3-9.2l16-9.2q9.5 4.5 18.7 9.5z" /><path class="s0" d="m541.3 438.8c7.4 12.8 3 29.3-9.8 36.7l-143.3 82.7c-45.3 26.2-101.9 23.3-144.3-7.3c-15.2-11-27.8-24.9-37.3-41.3c-9.4-16.5-15.2-34.3-17.1-53c-5.3-52 20.5-102.5 65.8-128.6l322.1-185.9c18.1 9.2 35.3 20.1 51.4 32.3l-346.6 200.2c-37.8 21.8-50.8 70.3-29 108.1c21.8 37.8 70.4 50.8 108.1 29l119-68.7l24.3-14c12.9-7.4 29.3-3 36.7 9.8z" /><path class="s0" d="m657.3 178.3l-13.8 7.9q-7.2-6.1-14.7-11.8l14.1-8.1q7.4 5.8 14.4 12z" /><path class="s0" d="m215.6 718.6l-14.2 8.2q-7.3-5.8-14.4-12l13.9-8q7.2 6.1 14.7 11.8z" /><path class="s0" d="m281.9 437.9q-0.1 1.5-0.1 3q0-1.5 0.1-3z" /><path class="s0" d="m286.3 760.1l-16 9.3c-6.4-3-12.6-6.2-18.7-9.5l15.4-8.9q9.5 4.9 19.3 9.1z" /><path class="s0" d="m293.3 411.1q-0.1 0-0.1 0.1q0.1-0.2 0.2-0.3q-0.1 0.1-0.1 0.2z" /><path class="s0" d="m301.8 403.7q-0.3 0.2-0.7 0.5q0.4-0.3 0.7-0.5q0.2-0.1 0.4-0.2q-0.2 0.1-0.4 0.2z" /><path class="s0" d="m340.6 482.9q-0.5 0.2-1 0.3q-0.1 0-0.2 0.1q0.6-0.2 1.2-0.4z" /><path class="s0" d="m447.3 319.6l-143.3 82.8l143.3-82.8q2.8-1.6 5.6-3.1q-2.8 1.5-5.6 3.1z" /><path class="s0" d="m477 306.5q-0.7 0.2-1.4 0.5q0.8-0.3 1.6-0.6q-0.1 0.1-0.2 0.1z" /><path class="s0" d="m479.3 305.8q-1 0.3-2.1 0.6q1-0.3 1.9-0.6q0.1 0 0.2 0z" /><path class="s0" d="m479.4 305.8q0 0-0.1 0q0.7-0.2 1.3-0.4q0.4-0.1 0.8-0.2q0.2-0.1 0.3-0.1q1-0.3 1.9-0.5q-0.2 0-0.3 0.1q-0.2 0-0.3 0q-0.2 0.1-0.4 0.2q-1 0.2-1.9 0.5q-0.7 0.2-1.3 0.4z" /><path class="s0" d="m484.1 304.4q-0.3 0.1-0.5 0.2q0.4-0.1 0.8-0.2q0.8-0.3 1.7-0.5q-0.2 0.1-0.5 0.1q0 0 0 0q-0.8 0.2-1.5 0.4z" /><path class="s0" d="m486.5 303.8q-0.2 0.1-0.4 0.1q0.7-0.2 1.4-0.3q-0.5 0.1-1 0.2z" /><path class="s0" d="m488.6 303.3q-0.5 0.1-1.1 0.3q0.8-0.2 1.6-0.4q-0.2 0-0.5 0.1z" /><path class="s0" d="m495.9 301.8q-1.6 0.3-3.2 0.6q2-0.4 4-0.7q0 0 0 0q-0.4 0-0.8 0.1z" /><path class="s0" d="m498.4 301.4q-0.8 0.1-1.6 0.2q1.1-0.2 2.3-0.3q-0.3 0-0.7 0.1z" /><path class="s0" d="m499.7 301.2q-0.3 0-0.6 0.1l0.2-0.1q0.9-0.1 1.9-0.3q0.4 0 0.9-0.1q0 0-0.1 0q-0.1 0.1-0.2 0.1q-0.7 0.1-1.4 0.2q-0.3 0-0.7 0.1z" /><path class="s0" d="m502.4 300.8q0 0 0 0q0 0 0.1 0q0.5-0.1 0.9-0.2q0.4 0 0.8-0.1q0.2 0 0.3 0q0.1 0 0.1 0q0 0 0.1 0q-1 0.1-1.9 0.2q-0.2 0.1-0.4 0.1z" /><path class="s0" d="m509.5 300q0.4 0 0.8-0.1q-0.4 0.1-0.8 0.1z" /><path class="s0" d="m504.7 300.5q0 0 0 0q0 0 0.1 0q-0.1 0-0.1 0q0 0 0 0z" /><path class="s0" d="m509.5 300q-1.4 0.1-2.8 0.3q0 0 0 0q0.1 0 0.3-0.1q0.3 0 0.5 0q1-0.1 1.9-0.2z" /><path class="s0" d="m502.4 300.8q-0.2 0-0.3 0q0 0 0 0q0.1 0 0.3 0z" /><path class="s0" d="m505 300.5q-0.1 0-0.1 0q0.9-0.1 1.8-0.2q-0.1 0-0.1 0h-0.1q-0.8 0.1-1.5 0.2z" /><path class="s0" d="m504.9 300.5q-0.1 0-0.1 0q0 0 0 0q0.1 0 0.1 0z" /><path class="s0" d="m513.3 299.7q1.3-0.1 2.5-0.1q0.3 0 0.6 0q-3.1 0.1-6.1 0.3q0.4 0 0.7 0q1.2-0.1 2.3-0.2z" /><path class="s0" d="m516.7 299.5q-0.2 0.1-0.3 0.1q2.2-0.1 4.3-0.2q0.9 0 1.7 0q-1.3 0.1-2.5 0.1q-0.8 0-1.5 0q-0.8 0-1.7 0z" /><path class="s0" d="m524.1 299.5q-0.8-0.1-1.7-0.1q1 0 1.9 0q0.3 0.1 0.6 0.1q1 0 2 0q-0.7 0-1.4 0q-0.7 0-1.4 0z" /><path class="s0" d="m528.3 299.6q-0.7-0.1-1.4-0.1q0.6 0 1.1 0q0.9 0.1 1.8 0.1q-0.8 0-1.5 0z" /><path class="s0" d="m531.3 299.7q-0.2 0-0.3 0q0.3 0 0.7 0q1.8 0.1 3.6 0.3q1.7 0.1 3.3 0.3q0.1 0 0.2 0q0.2 0 0.3 0.1q0 0 0.1 0q0 0 0 0q0.9 0.1 1.7 0.2q0.9 0.1 1.7 0.2q0.7 0.1 1.4 0.2q-0.1 0-0.1 0q-0.8-0.1-1.7-0.2q-5.1-0.7-10.3-1.1q-0.3 0-0.6 0q0 0 0 0z" /><path class="s0" d="m533.7 389.4q-0.1-0.1-0.3-0.1q0 0 0 0q0.1 0 0.3 0.1z" /><path class="s0" d="m546.2 301.3q-0.8-0.1-1.7-0.2q0.9 0.1 1.8 0.2q2 0.3 4 0.7q0.1 0.1 0.2 0.1q0.1 0 0.1 0q0.1 0 0.2 0q0.1 0.1 0.2 0.1q0 0 0.1 0q0.3 0 0.6 0.1q0.5 0.1 1.1 0.2q0.4 0.1 0.7 0.2q-1.5-0.3-3.1-0.6q-0.3-0.1-0.6-0.1q-0.4-0.1-0.8-0.2q-0.5-0.1-1.1-0.2q-0.8-0.1-1.7-0.3z" /><path class="s0" d="m549.2 394.4q-0.3-0.2-0.7-0.3l-0.9-0.5q0.8 0.4 1.6 0.8z" /><path class="s0" d="m556.7 303.4q0.5 0.1 1 0.2q1.6 0.4 3.3 0.9q2.2 0.5 4.4 1.2q1.7 0.5 3.3 1q0 0 0 0q-6.3-2-12.7-3.5q0.3 0.1 0.7 0.2q0 0 0 0z" /><path class="s0" d="m571.3 487.7q-0.1 0-0.1 0.1q0 0 0 0q0-0.1 0.1-0.1z" /><path class="s0" d="m572 486.7q0 0 0 0.1q0 0 0 0q0-0.1 0-0.1q0 0 0 0z" /><path class="s0" d="m572.9 485.5q-0.2 0.2-0.3 0.4q-0.3 0.4-0.5 0.7q0 0 0 0q0.1-0.1 0.2-0.2q0-0.1 0-0.1q0 0 0 0q0.4-0.5 0.7-0.9q-0.1 0-0.1 0.1z" /><path class="s0" d="m571.5 307.6q-0.7-0.2-1.4-0.4q0.7 0.2 1.4 0.4q0.8 0.3 1.6 0.6q0.6 0.2 1.2 0.4q0.1 0.1 0.3 0.1q2.6 1 5.2 2q2.7 1.1 5.3 2.4q-1.3-0.6-2.6-1.2q0 0 0 0q-2.3-1-4.6-1.9q-0.6-0.2-1.2-0.5q-1-0.3-2-0.7q-0.9-0.3-1.8-0.7q-0.7-0.2-1.4-0.5z" /><path class="s0" d="m584 455.1q0 0 0-0.1q-0.1 0.4-0.1 0.8q0-0.3 0.1-0.7z" /><path class="s0" d="m584 454.5q0 0.3 0 0.5q0-0.1 0-0.2q0-0.1 0-0.2q0 0 0-0.1z" /><path class="s0" d="m584.1 453.4q0-0.6 0-1.1q0 0.7 0 1.4q0-0.2 0-0.3z" /><path class="s0" d="m590.3 315.6q0 0 0-0.1q0.1 0.1 0.2 0.1q0.2 0.2 0.5 0.3q-0.3-0.2-0.7-0.3z" /><path class="s0" d="m591.6 316.2q-0.3-0.1-0.6-0.3q0.2 0.1 0.4 0.2q0.1 0.1 0.2 0.1z" /><path class="s0" d="m592.9 316.9q-0.6-0.3-1.3-0.7q0.5 0.2 0.9 0.5q0.1 0 0.1 0q0.1 0.1 0.1 0.1q0.9 0.4 1.7 0.9q-0.5-0.3-1-0.5q-0.2-0.2-0.5-0.3z" /><path class="s0" d="m595.9 318.5l-0.3-0.2q0.7 0.4 1.4 0.8q0.6 0.4 1.3 0.8q1.2 0.7 2.5 1.5q0.8 0.5 1.6 1q0.1 0 0.1 0q0.2 0.2 0.5 0.3q-0.2-0.1-0.4-0.2q-3.3-2.1-6.7-4z" /><path class="s0" d="m603.1 577.1q0-0.1 0.1-0.1q-0.2 0.1-0.4 0.3q0.1-0.1 0.3-0.2z" /><path class="s0" d="m640.5 543.5q1.2-1.5 2.3-3q-0.7 1-1.5 1.9q-0.5 0.7-0.9 1.3q-0.3 0.3-0.6 0.7q-0.8 0.9-1.6 1.9q-0.1 0.2-0.3 0.4q0.6-0.7 1.2-1.5q0.7-0.8 1.4-1.7z" /><path class="s0" d="m644.9 537.7q0.1-0.1 0.1-0.2q-0.3 0.5-0.7 1q0 0 0 0q0.3-0.4 0.6-0.8z" /><path class="s0" d="m653.5 524.1q0.1-0.2 0.3-0.4q-0.3 0.5-0.6 0.9q0.2-0.2 0.3-0.5z" /><path class="s0" d="m589 565l-322 186c-18.2-9.3-35.4-20.1-51.4-32.4l346.6-200.1c37.8-21.8 50.8-70.3 28.9-108.1c-21.8-37.9-70.3-50.9-108.1-29l-119 68.6l-24.3 14.1c-12.8 7.4-29.3 2.9-36.7-9.9c-7.4-12.8-3-29.2 9.8-36.6l143.3-82.8c45.3-26.1 101.9-23.2 144.3 7.4c15.3 10.9 27.8 24.8 37.3 41.3c9.5 16.4 15.2 34.2 17.1 52.9c5.3 52-20.5 102.5-65.8 128.6z" /><path class="s0" d="m654.7 522q0.2-0.3 0.3-0.5q-0.3 0.5-0.6 1.1q0.2-0.3 0.3-0.6z" /><path class="s0" d="m657.9 384.2q0.4 0.8 0.8 1.6q-0.1-0.1-0.1-0.3q-0.5-0.9-0.9-1.8q-0.9-1.8-1.8-3.6q-1.5-2.7-3-5.4c-11-19-25.5-34.7-42.2-46.8q-2.7-1.9-5.5-3.8q0.3 0.2 0.6 0.4q2.5 1.7 4.9 3.4c16.7 12.1 31.2 27.8 42.2 46.8q0.7 1.2 1.3 2.3q0.7 1.2 1.3 2.5q0.4 0.6 0.7 1.3q0 0 0 0q0.5 0.9 0.9 1.8q0.4 0.8 0.8 1.6z" /><path class="s0" d="m661 508.9q0.5-1.1 1-2.3q-0.5 1.1-0.9 2.3q0 0-0.1 0q0 0 0 0z" /><path class="s0" d="m661.7 392.5q0.2 0.5 0.4 1q-0.2-0.4-0.3-0.8q-0.3-0.7-0.6-1.4q-0.3-0.5-0.5-1.1q0.3 0.7 0.5 1.2q0.1 0.1 0.1 0.2q0.1 0.2 0.2 0.4q0 0.2 0.1 0.4q0.1 0 0.1 0.1z" /><path class="s0" d="m665.3 402.2q-0.5-1.6-1.1-3.2q-0.1-0.3-0.2-0.5q0.4 0.9 0.7 1.8q0.3 1 0.6 1.9z" /><path class="s0" d="m667 492.3q0.1-0.3 0.1-0.5q-0.2 0.7-0.4 1.4q0.2-0.5 0.3-0.9z" /><path class="s0" d="m668.1 488.3q-0.4 1.4-0.8 2.8q0.8-2.7 1.4-5.4q0 0.3-0.1 0.6q-0.3 1-0.5 2z" /><path class="s0" d="m669.3 483.2q0.1-0.2 0.1-0.5q0 0.1 0 0.2q0 0.2-0.1 0.3z" /><path class="s0" d="m669.5 417.4q-0.2-1-0.4-1.9q0.2 0.9 0.4 1.9q0 0 0 0q0 0 0 0z" /><path class="s0" d="m669.8 418.8q-0.1-0.4-0.1-0.8q0 0.3 0.1 0.7q0 0 0 0.1z" /><path class="s0" d="m669.8 418.9q0-0.1 0-0.1q0 0 0 0.1z" /><path class="s0" d="m669.7 481.3q0.2-0.7 0.3-1.4q-0.2 1.3-0.5 2.7q0-0.2 0-0.4q0.2-0.4 0.2-0.9z" /><path class="s0" d="m669.9 419.3q0-0.2 0-0.4q0.2 1.2 0.4 2.3q-0.2-1-0.4-1.9z" /><path class="s0" d="m670.5 477.6q0-0.3 0.1-0.6q-0.3 1.5-0.6 2.9q0.3-1.2 0.5-2.3z" /><path class="s0" d="m670.6 476.9q0 0.1 0 0.1q0.5-2.7 0.9-5.5q-0.2 1.3-0.4 2.6q-0.2 1.4-0.5 2.8z" /><path class="s0" d="m672.2 465.6q0.1-0.4 0.1-0.8q0 0.7-0.1 1.4q0 0.2-0.1 0.3q0 0.3 0 0.5q0 0 0 0q0-0.2 0-0.3q0.1-0.3 0.1-0.7q0-0.2 0-0.4z" /><path class="s0" d="m672.1 467q0 0 0 0q-0.1 0.5-0.1 1.1q-0.2 1.5-0.4 3q0-0.4 0.1-0.7q0.1-0.9 0.2-1.8q0.1-0.5 0.1-1q0-0.1 0-0.2q0.1-0.2 0.1-0.4z" /><path class="s0" d="m672.3 464.8q0.3-2.6 0.5-5.3q-0.2 2.6-0.5 5.3z" /><path class="s0" d="m671.8 430.8q-0.1-0.9-0.2-1.9q0.2 1.1 0.3 2.2q0 0.1 0 0.3q0.1 0.7 0.2 1.3q0.1 1 0.2 1.9q0.4 3.8 0.6 7.7q-0.2-3.8-0.6-7.7q-0.2-1.9-0.5-3.8z" /><path class="s0" d="m672.9 456.9q0-0.4 0-0.7q0 1.2-0.1 2.5q0-0.1 0-0.3q0-0.3 0-0.6q0.1-0.5 0.1-0.9z" /><path class="s0" d="m673 452.9q0.1-5.3-0.1-10.6q0.3 5.3 0.1 10.6z" /><path class="s0" d="m778.9 446.5v1.3q0 0.6 0 1.2q0 0.2 0 0.4q0 1-0.1 2q0.1 0.4 0 0.7q0 0.9 0 1.7q0 0.8 0 1.7q0 0.4 0 0.7q0 0.3-0.1 0.6q0 0.4 0 0.8q0 0.2 0 0.3q0 0.5 0 0.9v0.2q0 0.1 0 0.1q0 0.2 0 0.3q-0.1 1.1-0.1 2.1q0 0.1 0 0.3q0 0.3-0.1 0.6q0 0.7 0 1.4q0 0.3-0.1 0.6q0 0.2 0 0.4q0 0.2 0 0.4q0 0.6-0.1 1.2q0 0.2 0 0.3q0 0.2 0 0.3q0 0.4 0 0.9q0 0.2-0.1 0.4q0 0.4 0 0.7q0 0.2 0 0.3q0 0.2-0.1 0.4q0 0.3 0 0.5q0 0.5-0.1 1q0 0.5 0 0.9q0 0.2-0.1 0.5q0 0.2 0 0.4q0 0.1 0 0.2q0 0.3 0 0.6q-0.1 0.3-0.1 0.7q0 0 0 0q-0.1 1.3-0.2 2.6v0.1q0 0.3-0.1 0.6q0 0.3 0 0.6q0 0.3-0.1 0.6q0 0.6-0.1 1.2q0 0.1 0 0.3q0 0.1 0 0.2q0 0.1-0.1 0.3q0 0.2 0 0.4q0 0.4-0.1 0.8q0 0.3 0 0.6q0 0.1 0 0.1q-0.2 1.2-0.3 2.4q-0.1 1-0.2 1.9q-0.4 3.7-0.9 7.3q-0.3 2-0.6 3.9q0 0.5-0.1 0.9q0 0 0 0.1q0 0 0 0.1q0 0.3-0.1 0.6q0 0.1 0 0.2q0 0 0 0q0 0 0 0q0 0 0 0.1q0 0.1-0.1 0.1q0 0.1 0 0.1q0 0 0 0q0 0 0 0.1q0 0 0 0q0 0.2 0 0.3q-0.1 0.6-0.2 1.2q0 0 0 0q-0.1 0.2-0.1 0.4q-0.1 0.4-0.1 0.8q-0.2 0.9-0.3 1.9q-0.3 1.8-0.6 3.6q-0.3 1.7-0.7 3.5q0 0 0 0q-0.2 1.2-0.4 2.4q0 0-0.1 0.1q0 0 0 0q0 0 0 0q0.1 0 0 0q0 0.1 0 0.1q0 0 0 0q0 0 0 0q0 0.2 0 0.3v0.1q0 0-0.1 0q0.1 0 0 0v0.1q0 0 0 0q0 0.3-0.1 0.5q0 0 0 0q-0.7 3.5-1.4 7q0 0 0 0q-0.3 1.1-0.5 2.2q-0.3 1.1-0.5 2.2q-0.4 1.8-0.9 3.6q0 0 0 0q0 0.1 0 0.2q-0.1 0.3-0.2 0.6q-0.2 0.9-0.4 1.7q0 0.2-0.1 0.4q-0.5 2-1 3.9q0 0.1-0.1 0.3q-0.1 0.5-0.3 1.1q0 0.2-0.1 0.5q-0.1 0.2-0.1 0.4q-0.3 1.2-0.7 2.5q-0.1 0.5-0.3 1q-0.5 1.8-1 3.6q-0.2 0.5-0.3 0.9q-0.1 0.3-0.1 0.6q-0.1 0.1-0.2 0.3q-0.2 0.9-0.5 1.8q-0.5 1.7-1 3.4q-0.6 1.7-1.1 3.4q0 0 0 0q-0.6 1.7-1.2 3.3q-0.7 2.1-1.4 4.2q-0.7 2-1.5 4.1q0 0 0 0q-1.4 4.1-3.1 8.1q0 0 0 0q-1.3 3.5-2.8 6.9q-1 2.6-2.2 5.2q-1.7 3.9-3.5 7.9q0 0 0 0q-0.9 1.8-1.8 3.6q-0.1 0.2-0.2 0.5q-0.3 0.6-0.5 1.1q-0.1 0.3-0.3 0.5q0 0 0 0.1q-0.2 0.4-0.4 0.7q-0.2 0.4-0.3 0.7q-0.4 0.8-0.8 1.5q-1.7 3.4-3.4 6.8q0 0 0 0q-2 3.8-4.1 7.5q-2.2 3.8-4.3 7.5q-3.3 5.6-6.8 11q0 0 0 0q-0.9 1.4-1.8 2.7q-0.7 1.2-1.5 2.4q-0.1 0.1-0.2 0.3q-0.5 0.7-1 1.5q-0.4 0.6-0.8 1.2q0 0 0 0q-0.9 1.3-1.8 2.6q-5 7.1-10.2 13.9q-2.6 3.4-5.3 6.7q-1.3 1.7-2.7 3.4q-2.7 3.2-5.5 6.5c-41.1 47.4-94.5 83.9-155.3 104.5q-2.1 0.7-4.2 1.4q0 0 0 0q-2.1 0.7-4.2 1.3q-4.1 1.3-8.4 2.5q-2.1 0.6-4.2 1.2q0 0 0 0q-4.3 1.1-8.6 2.2q0 0 0 0q-4.3 1-8.6 2q0 0 0 0q-2.3 0.5-4.6 1q-4.7 0.9-9.3 1.7q-2.4 0.4-4.7 0.8q-1.9 0.3-3.7 0.6q-1 0.1-1.9 0.3q-1.6 0.2-3.3 0.4q-2 0.3-3.9 0.6q-0.4 0-0.8 0.1q-2.1 0.2-4.1 0.4q-0.1 0.1-0.1 0q-2.2 0.3-4.5 0.5q-0.1 0-0.2 0q-2 0.2-4 0.4q-0.3 0-0.7 0.1q-1.6 0.1-3.2 0.2q-1.4 0.1-2.7 0.2q-1.4 0.1-2.8 0.2q-2.7 0.2-5.4 0.3q-2.7 0.1-5.3 0.2q-0.1 0-0.1 0q-1.4 0-2.8 0.1q-2 0-4 0q-2.1 0.1-4.1 0.1q-0.9 0-1.7-0.1q-0.8 0-1.6 0q0 0 0 0q-3.3 0-6.5-0.1q-1.6 0-3.3-0.1q-2.1-0.1-4.3-0.2q0 0 0 0q-3.2-0.1-6.5-0.3q-3.2-0.2-6.4-0.5q0 0 0 0q-4.8-0.4-9.6-0.9q-1.6-0.2-3.1-0.4h-0.1q-3.1-0.4-6.3-0.8q-1.6-0.3-3.1-0.5q-3.2-0.4-6.3-1q-4.7-0.7-9.3-1.6q-2.1-0.4-4.2-0.9q-4.1-0.8-8.2-1.8q-1.6-0.3-3.3-0.7q-1.9-0.5-3.7-1q-1.1-0.2-2.2-0.5q-1.7-0.4-3.3-0.9q-1.6-0.4-3.1-0.8q-6.9-1.9-13.6-4.1q-1.1-0.4-2.2-0.7q-1.1-0.4-2.3-0.8q-1.5-0.5-3-1q-1.8-0.7-3.7-1.3q-1.6-0.6-3.2-1.2q-0.1-0.1-0.2-0.1q-0.2-0.1-0.5-0.2q-0.1 0-0.3-0.1q-1.6-0.6-3.2-1.2q-1.8-0.7-3.6-1.4l16.8-9.7c36 12.9 74.7 19.9 115.1 19.9c188.4 0 341.8-153.3 341.8-341.8c0-97.5-41.1-185.6-106.8-247.9l13.6-7.9q1.5 1.5 3.1 3.1q0.2 0.2 0.4 0.4l0.2 0.2q0.4 0.4 0.9 0.9q0.3 0.3 0.7 0.7l0.1 0.1q0 0 0 0q0 0 0 0q0 0 0 0q0.1 0.1 0.2 0.2q0 0 0.1 0.1q0.1 0.1 0.3 0.3q0.3 0.3 0.7 0.7q0.1 0.1 0.2 0.3q1.1 1.1 2.2 2.2q0.3 0.3 0.5 0.6q0.4 0.4 0.7 0.7q0.9 0.9 1.7 1.8q0.3 0.3 0.6 0.6q0.2 0.3 0.4 0.5q0.2 0.2 0.4 0.4q0.4 0.4 0.7 0.8q0.1 0 0.1 0q0 0 0 0q0 0 0 0q0 0.1 0 0.1q0 0 0 0q0 0 0.1 0q0 0.1 0 0.1q0.1 0 0 0q0.1 0 0.1 0q0 0.1 0 0.1q0 0 0 0q0.1 0.1 0.2 0.2q0.1 0 0.1 0.1q0 0 0 0q0 0 0 0q0 0 0 0q0.1 0.1 0.1 0.1q0 0 0 0q0 0.1 0 0.1q0.1 0 0 0q0.1 0 0.1 0q0 0 0 0q0 0 0 0q0.1 0.1 0.2 0.2q0.4 0.5 0.8 0.9q0.2 0.2 0.4 0.4q0 0 0 0.1q0.2 0.1 0.2 0.2q0.1 0.1 0.1 0.1q0 0 0 0q0 0 0 0q0.1 0 0.1 0.1q0 0 0.1 0.1q0.1 0.1 0.2 0.2q0 0.1 0.1 0.1q0 0 0 0q0 0.1 0.1 0.1q0 0.1 0.1 0.2q0 0 0 0q0.1 0 0 0q0.1 0.1 0.1 0.1l0.1 0.1q0.2 0.2 0.3 0.4q0.1 0 0.1 0.1q0 0 0 0q0.1 0 0.1 0.1q0.1 0.1 0.2 0.2h0.1v0.1q0 0 0 0q0 0 0 0q0.1 0.1 0 0.1q0.1 0 0.1 0q0 0 0 0q0 0 0 0q0 0 0 0q0.1 0.1 0 0.1q0.1 0 0.1 0q0 0 0 0q0 0 0 0q0.1 0.1 0 0.1q0.1 0 0 0q0.1 0 0.1 0q0 0 0 0q0.1 0.1 0.1 0.1q0 0.1 0 0.1q0.1 0 0 0q0.1 0 0.1 0q0 0 0 0.1q0 0 0 0q0.1 0 0 0q0.1 0 0.1 0.1q0.1 0 0 0q0.1 0 0.1 0q0 0.1 0 0.1q0 0 0 0q0.1 0 0.1 0.1q0 0 0 0.1q0.1 0 0.1 0q0 0 0 0q0 0 0 0q0.1 0.1 0.1 0.1q0 0 0 0q0 0 0 0q0 0 0 0q0 0 0 0q0 0.1 0.1 0.1q0 0 0 0q0.1 0.2 0.3 0.3q0.3 0.4 0.5 0.7q1.7 1.8 3.2 3.7q1.6 1.9 3.2 3.8q0.8 1 1.6 2q0.6 0.7 1.2 1.4q0.7 0.9 1.4 1.8q0 0 0.1 0.1q0.2 0.3 0.5 0.6q0.7 1 1.5 1.9q0 0.1 0.1 0.1q0.1 0.2 0.2 0.4q0.3 0.3 0.5 0.6q3.5 4.5 6.9 9.2q0.1 0.1 0.2 0.3q0 0 0.1 0q0 0.1 0 0.1q1 1.3 1.9 2.7q1.1 1.6 2.2 3.1q5 7.2 9.6 14.7q0 0 0 0q0.3 0.5 0.7 1.1q0 0 0 0.1q0.2 0.2 0.3 0.4q0 0 0.1 0.1q0.4 0.6 0.8 1.3q0 0.1 0.1 0.3q0.5 0.8 1 1.6q0.5 0.8 1 1.6q0.2 0.5 0.5 0.9q0.7 1.2 1.4 2.5q0.2 0.2 0.3 0.5q0.2 0.3 0.5 0.7q0.3 0.6 0.6 1.2q0 0 0.1 0.1q0.1 0.2 0.2 0.4q0 0 0 0q0.1 0.2 0.2 0.3q0 0.1 0 0.1q0.3 0.5 0.6 1.1q0.4 0.6 0.8 1.3q0.5 0.9 1 1.8q0.3 0.7 0.7 1.4q0 0 0 0q0 0 0 0q0 0.1 0.1 0.1q0.3 0.5 0.5 1q1.3 2.3 2.4 4.6q0.5 0.8 0.9 1.7q0.1 0.3 0.3 0.6q0.8 1.7 1.7 3.4q0 0 0 0q0.1 0.1 0.1 0.2q0.1 0.2 0.2 0.3q0 0 0 0q0 0.1 0 0.1q0 0.1 0.1 0.2q0 0 0 0q0 0 0 0q0 0 0 0q0 0 0 0.1q0 0 0 0q0.1 0 0.1 0q0 0.1 0 0.1q0 0.1 0.1 0.1q0 0.2 0.1 0.4q0.1 0 0.1 0.1q0.1 0.3 0.2 0.5q0.2 0.2 0.3 0.5q0.2 0.4 0.4 0.9q0 0 0 0q0.2 0.4 0.4 0.8q0.3 0.6 0.6 1.3q0.3 0.7 0.7 1.4q0.8 1.7 1.6 3.5q3.2 7 6.1 14.2q0.6 1.6 1.2 3.2q0.1 0.2 0.2 0.3q0.1 0.4 0.2 0.8q0.1 0.1 0.2 0.3q0 0.1 0.1 0.3q0 0.1 0.1 0.3q0 0 0 0q0.1 0.2 0.2 0.4q0.1 0.5 0.3 0.9q0.3 0.7 0.6 1.5q0.3 0.8 0.6 1.7q0.1 0.3 0.2 0.6q0 0 0 0.1q0 0 0 0q0 0 0 0q0.1 0.2 0.2 0.5q0.1 0.1 0.1 0.2q0 0.1 0.1 0.3q0.1 0.1 0.1 0.3q0.1 0.1 0.1 0.2q0.3 0.9 0.6 1.7q0.2 0.5 0.3 1q0.2 0.2 0.2 0.5q0.2 0.4 0.3 0.7q0.2 0.6 0.4 1.2q0.7 1.9 1.3 3.9q1.4 4.2 2.7 8.5q1.3 4.2 2.5 8.6q2.4 8.6 4.3 17.4q0.5 2.2 1 4.5q0.9 4.4 1.7 8.8v0.1q0.4 1.9 0.7 3.9q0.7 3.9 1.3 7.8q0.3 2 0.5 4q0.6 4 1 8q0.5 4 0.8 8q0 0 0 0q0.2 2 0.4 4q0.1 1.8 0.2 3.5q0.1 0.3 0.1 0.6q0 1.1 0.1 2.3q0.1 0.7 0.1 1.4q0 0.1 0 0.3q0 0 0 0q0.1 1.3 0.1 2.5q0.1 0.7 0.1 1.3q0 0.5 0 0.9q0.1 1.4 0.2 2.8q0 0.2 0 0.4q0 0.3 0 0.6q0 0.4 0 0.7q0 0.2 0 0.3v0.2q0 0.6 0.1 1.2q0 1 0 2.1q0 0.5 0 1q0.1 1.4 0.1 2.8q0 1.8 0 3.6z" /><path fill-rule="evenodd" class="s0" d="m589.6 114.7l-15.5 9q-9.9-4.7-20.1-8.7l16.2-9.4q9.8 4.3 19.4 9.1zm-35.6 0.3l-16.8 9.7q-13.5-4.9-27.4-8.6h-0.1q-3.4-0.9-7-1.8q-1.7-0.4-3.5-0.8q-1.8-0.4-3.6-0.8q-1.7-0.4-3.5-0.8q-1.8-0.3-3.6-0.7q-1.4-0.3-2.8-0.5q-0.7-0.2-1.3-0.3q-1.4-0.2-2.9-0.5q-0.1 0-0.2 0q-3.6-0.7-7.2-1.2q-4.5-0.7-9.1-1.3q-4.6-0.6-9.2-1q-2.9-0.3-5.7-0.5q-2.7-0.2-5.4-0.4q-2.6-0.2-5.3-0.3q-2.7-0.2-5.5-0.3q-0.6 0-1.2 0q-1.4 0-2.7-0.1q-0.3 0-0.7 0q-1.7 0-3.4 0q-1.8-0.1-3.7-0.1q-11.1 0-22 0.7q-2 0.2-4 0.3q-4.1 0.3-8.1 0.7q-2.1 0.2-4.1 0.5q-0.7 0-1.5 0.1q-1.7 0.2-3.4 0.4q-2.3 0.3-4.7 0.7q-4.1 0.5-8.1 1.2q-2.3 0.4-4.6 0.8q-1.9 0.3-3.9 0.7q-2.2 0.5-4.5 0.9q-2.1 0.4-4.1 0.9q-8.3 1.8-16.4 4q-2.1 0.6-4.1 1.1q0 0 0 0q-4.1 1.2-8.1 2.4q-4 1.3-8 2.6q-3.9 1.4-7.8 2.8q-4 1.5-7.8 3h-0.1q-3.3 1.3-6.5 2.7q-4.4 1.8-8.8 3.8q-3.8 1.7-7.5 3.5q0 0 0 0q-3.7 1.8-7.4 3.7q0 0 0 0q-3.7 1.9-7.3 3.8v0.1q-3.7 1.9-7.2 4q0 0 0 0q-3.6 2-7.1 4.2q0 0 0 0q-1.8 1.1-3.5 2.2q-1.8 1-3.5 2.2q-3.5 2.2-6.9 4.5q0 0 0 0q-1.7 1.1-3.4 2.3q-1.3 0.9-2.5 1.8q-0.1 0-0.1 0.1q-0.6 0.4-1.2 0.8q-1.5 1-2.9 2.1q-3.3 2.4-6.6 4.9q0 0 0 0q-1.6 1.3-3.3 2.6q-1.6 1.2-3.1 2.5q-3.2 2.6-6.4 5.2q-1.5 1.3-3.1 2.7q-1.4 1.2-2.8 2.4q-0.5 0.5-1 1q-1.2 1-2.3 2q-1.5 1.3-2.9 2.7q-0.1 0.1-0.2 0.1q0 0.1-0.1 0.1q-0.9 0.9-1.8 1.8q-0.2 0.2-0.4 0.4q-0.6 0.5-1.1 1q-1.1 1-2.1 2l-0.2 0.2q-0.3 0.3-0.6 0.6q-1.3 1.2-2.5 2.5q-1.5 1.4-2.9 2.9q-1.4 1.5-2.8 2.9q-1.5 1.5-2.9 3q-2.8 3-5.5 6.1q-2.1 2.4-4.1 4.8q-1.8 2-3.5 4.1q-1.5 1.8-3 3.6q-0.8 1-1.5 2q-1.4 1.6-2.6 3.3q-1.8 2.2-3.4 4.5q-2.5 3.3-4.9 6.6q-1.9 2.7-3.7 5.4q-1 1.4-1.9 2.7q-0.7 1.1-1.4 2.1q-1.1 1.7-2.2 3.4q-2.2 3.5-4.4 7q-1 1.8-2.1 3.6q-1.2 2-2.3 4q-0.8 1.3-1.5 2.6q-0.5 0.9-1 1.7q-1.5 2.7-3 5.5q-0.3 0.7-0.7 1.3q-0.6 1.3-1.3 2.6q-0.7 1.5-1.5 2.9q-0.6 1.2-1.1 2.3q-0.8 1.5-1.5 3.1q-1.4 2.9-2.7 5.8q-0.5 0.9-0.9 1.8q-0.6 1.5-1.3 3q-0.1 0.2-0.2 0.5q-0.5 1.1-1 2.2q-0.4 1-0.8 2q-0.7 1.6-1.3 3.2q-0.8 1.9-1.6 3.9q-1.5 3.8-3 7.7q-1.4 4-2.7 7.9q-1.4 4-2.6 8q-1.3 4-2.4 8.1q-0.7 2.4-1.4 4.8q-0.1 0.4-0.2 0.8q-0.5 1.9-1 3.7q-0.2 0.9-0.4 1.7q-0.4 1.7-0.8 3.3q-0.2 0.7-0.3 1.4q-0.6 2.4-1.1 4.8q-0.9 4.1-1.7 8.3q-0.8 4.2-1.5 8.4q-0.7 4.2-1.3 8.5q-0.3 2.1-0.6 4.2q0 0.1 0 0.2q-0.2 1.9-0.5 3.8q0 0.3 0 0.6q-0.3 2-0.4 3.9q-0.1 0.1-0.1 0.2q-0.2 2.1-0.4 4.3q-0.2 2.1-0.3 4.3q-0.2 1.7-0.3 3.4q0 0.6-0.1 1.3q-0.2 3.9-0.4 7.8q0 0.5 0 0.9q-0.1 1.6-0.1 3.3q0 0.7 0 1.4q-0.1 1.9-0.1 3.7q0 2.2 0 4.4q0 1.9 0 3.8q0 0.6 0 1.3q0 0.3 0 0.7q0 0.5 0 1q0.1 1.4 0.1 2.8q0 1.2 0.1 2.4q0 0.3 0 0.6q0 0.9 0.1 1.8q0 1.4 0.1 2.8q0 0.9 0.1 1.7q0 1.3 0.1 2.6v0.1q0.1 1.5 0.2 3q0.1 0.8 0.2 1.6v0.1q0 1.1 0.2 2.2q0 0.4 0 0.7q0.1 0.9 0.2 1.7q0.2 2.4 0.4 4.7q0.1 0.7 0.2 1.5q0.1 1.7 0.4 3.5q0.3 2.5 0.6 4.9q0.2 1.3 0.3 2.5q0.2 1.3 0.4 2.5q0.4 2.5 0.8 4.9q0 0 0 0q0.4 2.4 0.8 4.8q0 0.1 0 0.3q0.1 0.3 0.2 0.7q0.1 0.8 0.3 1.6q0.2 1.2 0.4 2.4q0.2 1.2 0.5 2.4q0.2 1.3 0.5 2.5q0.4 2.2 0.9 4.4q0.1 0.4 0.2 0.9q0.6 2.3 1.1 4.6q0.5 2.2 1.1 4.5q0.3 1.1 0.6 2.3q0.3 1.1 0.6 2.3q0.1 0.3 0.2 0.6q0.6 2.2 1.2 4.3q0.3 1.1 0.7 2.3q0.3 1.2 0.7 2.4q0.7 2.3 1.4 4.6q0.8 2.4 1.5 4.7q0.4 1.2 0.9 2.5q0.6 1.7 1.1 3.3q0.5 1.3 1 2.6q0.5 1.4 1 2.8q0.5 1.3 1 2.5q0.4 1.1 0.8 2.2q0.4 1.1 0.8 2.2q0.2 0.3 0.3 0.7q0.8 1.9 1.6 3.8q0.1 0.2 0.1 0.4q0.1 0.2 0.2 0.4q0.8 1.8 1.5 3.5q0.2 0.4 0.3 0.7q0.6 1.5 1.3 2.9q0.5 1.1 0.9 2.1q0.8 1.8 1.7 3.6q0.3 0.6 0.5 1.2q0.7 1.3 1.3 2.7q0.1 0.1 0.1 0.1q0.2 0.5 0.5 1q0.8 1.8 1.7 3.5q2.2 4.3 4.4 8.6q0.8 1.4 1.6 2.8q0 0 0 0q0.9 1.7 1.9 3.5q0.7 1.2 1.4 2.3q0.8 1.5 1.6 2.9q1.7 2.9 3.5 5.7q0.4 0.7 0.8 1.4q0.5 0.8 0.9 1.5q0.9 1.4 1.8 2.8q1.8 2.7 3.6 5.4q1 1.5 1.9 2.9q1 1.4 1.9 2.7q1 1.4 1.9 2.7q1.5 2.1 3 4.1q1.5 2 2.9 4q1.1 1.3 2.1 2.6q1 1.3 2 2.6q2.1 2.6 4.2 5.2q1 1.3 2.1 2.6q1.1 1.2 2.1 2.5q1.2 1.4 2.5 2.8q6.1 7.1 12.6 13.7q2.6 2.7 5.3 5.3q1.1 1.2 2.3 2.4q1.2 1.1 2.4 2.2v0.1l-13.6 7.8c-66.7-64.8-108.1-155.4-108.1-255.8q0-2.4 0.1-4.9q0-1.6 0-3.1q0.1-0.9 0.1-1.8q0-0.1 0-0.2q0-1.3 0-2.5q0-0.1 0.1-0.2q0-1 0-1.9q0.1-2.4 0.3-4.9q0.2-4.8 0.6-9.6q0.2-2.4 0.4-4.8q0.3-2.4 0.5-4.8q0.3-2.4 0.6-4.7q0.3-2.4 0.6-4.8q0.3-2.3 0.6-4.7q0.4-2.4 0.8-4.7q0.4-2.3 0.8-4.7q0.8-4.6 1.7-9.3q0.2-0.6 0.3-1.3q0-0.2 0.1-0.5q0.3-1.4 0.6-2.8q0 0 0-0.1q0.5-2.1 1-4.2q0.4-1.7 0.8-3.4q0-0.1 0-0.1q0.1-0.3 0.1-0.7q0.1 0 0.1-0.1q0 0 0 0q1-4.3 2.2-8.6q0 0 0 0q0.9-3.2 1.8-6.3q0.4-1.6 0.9-3.2q0.5-1.6 1-3.1q0.4-1.4 0.9-2.8q0.1-0.5 0.2-0.9q0.1-0.2 0.2-0.5q0 0 0 0q0.7-2.1 1.4-4.2q0.6-1.7 1.2-3.4q0.3-0.9 0.6-1.8q0.2-0.6 0.4-1.2q0.4-1.1 0.8-2.1q0.5-1.4 1-2.9q0.5-1.2 1-2.5q0.1-0.2 0.2-0.5q0.3-0.8 0.6-1.6q0.1-0.1 0.1-0.1q0-0.1 0.1-0.3q0-0.1 0.1-0.2q0-0.1 0.1-0.2q0.1-0.4 0.2-0.7q0.1-0.3 0.3-0.7q0.6-1.5 1.2-3q0.4-1 0.9-2.1q0.1-0.2 0.2-0.5q0.5-1.2 1-2.3q0.3-0.6 0.5-1.3q0.6-1.2 1.1-2.5q0.7-1.5 1.4-3q3.4-7.6 7.3-15.1q0.9-1.9 1.9-3.8q1.1-1.9 2.1-3.8q1-1.9 2.1-3.8q1-1.9 2.1-3.7q2.1-3.8 4.4-7.4q2.8-4.6 5.7-9.1q1.2-1.9 2.5-3.8q3.1-4.7 6.4-9.3q1-1.3 1.9-2.7q0.2-0.2 0.3-0.3q1.2-1.7 2.4-3.3q1.7-2.2 3.4-4.4q0.2-0.3 0.4-0.6q1.3-1.7 2.6-3.4q0.3-0.3 0.6-0.6q0.6-0.7 1.1-1.5q0.3-0.3 0.7-0.7q0.4-0.5 0.8-1.1q1-1.1 1.9-2.3q0.5-0.5 1-1.1q0.4-0.6 0.9-1.2q0.4-0.4 0.7-0.8q0.1 0 0.1-0.1q0.1-0.1 0.2-0.2q1.1-1.3 2.2-2.5q1.2-1.4 2.3-2.7q1.5-1.6 2.9-3.2q1.4-1.6 2.9-3.2q1.2-1.3 2.5-2.6q0.5-0.6 1.1-1.2q0.3-0.3 0.7-0.7q0.8-0.8 1.6-1.7q0.6-0.6 1.2-1.2q1.4-1.4 2.9-2.9q0.2-0.2 0.4-0.4q1.5-1.5 3.1-3q0.5-0.5 1-1q1.8-1.7 3.7-3.4q1.5-1.5 3.1-2.9q1.6-1.5 3.2-2.9q1.8-1.6 3.7-3.2q0.9-0.8 1.7-1.5q0.5-0.4 1-0.8q1.9-1.7 3.9-3.3q0.6-0.5 1.3-1q0.7-0.6 1.5-1.2q1.5-1.2 2.9-2.4q0.4-0.3 0.7-0.5q0.8-0.6 1.5-1.2q0.8-0.6 1.6-1.2q0.2-0.2 0.4-0.3q0.1-0.1 0.3-0.3q1.4-1 2.7-2q3.5-2.6 7-5.1q1.4-1 2.9-2.1q0.7-0.4 1.4-0.9q0 0 0 0q1.2-0.8 2.4-1.6q0.5-0.4 1-0.7q1.1-0.8 2.2-1.5q0.2-0.1 0.3-0.2q1.1-0.7 2.2-1.5q2.7-1.7 5.4-3.4q3.7-2.3 7.4-4.5q3.7-2.2 7.4-4.3q0 0 0.1 0q3.7-2.1 7.5-4.1q3.9-2 7.7-3.9q3.9-1.9 7.8-3.8q3.9-1.8 7.9-3.5q8-3.5 16.1-6.6q4.1-1.6 8.2-3q1.5-0.6 3.1-1.1q0.7-0.2 1.4-0.5q0.2 0 0.4-0.1q0.3-0.1 0.7-0.2q2.1-0.8 4.3-1.4q0.4-0.2 0.8-0.3q0.3-0.1 0.6-0.2q2.2-0.7 4.3-1.3q0.8-0.3 1.6-0.5q1.9-0.5 3.7-1.1q4.2-1.2 8.5-2.3q1.1-0.2 2.1-0.5q1.1-0.3 2.2-0.5q1.1-0.3 2.1-0.6q1.1-0.2 2.2-0.5q2.2-0.5 4.3-0.9q0.7-0.2 1.4-0.3q1.5-0.3 3-0.6q1.7-0.4 3.3-0.7q0.4-0.1 0.8-0.2q0.8-0.1 1.6-0.3q0.1 0 0.2 0q0.8-0.2 1.6-0.3q0.5-0.1 0.9-0.2q0.4 0 0.8-0.1q1.5-0.3 3-0.5q1.7-0.3 3.4-0.6q3.2-0.5 6.4-0.9q2.2-0.3 4.4-0.6q4.5-0.6 9-1.1q1.4-0.1 2.8-0.2q0.5-0.1 1-0.1q0.5-0.1 1.1-0.1q0.9-0.1 1.7-0.2q0.5 0 0.9 0q0.7-0.1 1.5-0.2q1.8-0.1 3.6-0.2q0 0 0.1 0q0 0 0.1 0q0.6-0.1 1.3-0.1q1.8-0.1 3.5-0.2q0.4 0 0.8 0q0.2-0.1 0.4-0.1q2-0.1 3.9-0.1q4.5-0.2 9.2-0.3q2.3 0 4.6 0q4.1 0 8.3 0.1q1.7 0 3.3 0.1q0.8 0 1.5 0q1.3 0.1 2.5 0.1q1.1 0.1 2.2 0.1q1.9 0.1 3.8 0.3q2.2 0.1 4.3 0.2q2.2 0.2 4.3 0.4q4.3 0.3 8.5 0.8q2.2 0.2 4.3 0.5q4.2 0.5 8.4 1.1q4.2 0.6 8.4 1.3q2 0.3 4.1 0.7q4.2 0.8 8.3 1.6q4.1 0.9 8.2 1.8q1.7 0.4 3.5 0.8q0.9 0.3 1.9 0.5q0.8 0.2 1.6 0.4q0.5 0.1 1 0.3q0.1 0 0.1 0q2 0.5 4 1q1.7 0.5 3.3 0.9q0 0 0.1 0.1q1.2 0.3 2.4 0.7q0.3 0 0.6 0.1q0.8 0.2 1.6 0.5q2 0.6 4 1.2q4 1.2 7.9 2.5q2 0.7 3.9 1.3q2 0.7 3.9 1.4q3.9 1.4 7.8 2.9q1.9 0.7 3.8 1.5zm-367 599.8l-13.4 7.8q-6.8-6.2-13.3-12.6l13.2-7.7q6.6 6.4 13.5 12.5zm470.3-536.5l-13.8 7.9q-7.2-6.1-14.7-11.8l14.1-8.1q7.4 5.8 14.4 12zm-64.5-45.1l-15.4 8.9q-9.5-4.9-19.3-9.2l16-9.2q9.5 4.5 18.7 9.5zm-302.5 644.9l-16.2 9.3q-9.8-4.3-19.3-9.1l15.5-8.9c-6.4-3-12.6-6.2-18.7-9.5l15.4-8.9q9.5 4.9 19.3 9.1l-16 9.3q1.2 0.6 2.4 1.1q3.7 1.8 7.5 3.4q2.5 1.1 5 2.1q2.6 1.1 5.1 2.1zm393.8-595l-13.3 7.6q-6.6-6.4-13.5-12.4l13.5-7.8q6.8 6.1 13.3 12.6zm94.8 263.4q0 0.6 0 1.2v0.1q0 0 0 0q0 0 0 0q0 0 0 0q0 0 0 0q0 0.1 0 0.1q0 0 0 0q0 0.1 0 0.1q0 0 0 0q0 0.1 0 0.1q0 0 0 0q0 0.4 0 0.9v0.1q0 0.6 0 1.2v0.3q0 1.4-0.1 2.7q0 0.2 0 0.3q0 0.1 0 0.2q0 0.8 0 1.7q0 0.4 0 0.7v0.2q-0.1 0.1-0.1 0.2v0.2q0 0.3 0 0.7q0 0 0 0.1q0 0.2 0 0.3q0 0.5 0 0.9v0.2q0 0.1 0 0.1q0 0.2 0 0.3q0 0.2-0.1 0.4q0 0.8 0 1.7q0 0.1 0 0.3q0 0.3-0.1 0.6v0.1q0 0.7 0 1.3q0 0.3-0.1 0.6q0.1 0.2 0 0.3q0 0.1 0 0.1q0 0.2 0 0.4q0 0.6-0.1 1.2q0.1 0 0 0q0 0.3 0 0.6q0 0.4 0 0.8v0.1q0 0-0.1 0.1v0.1q0.1 0.1 0 0.2q0 0.4 0 0.8q0 0.1 0 0.1q0 0.1 0 0.1q0 0.2 0 0.3q0 0-0.1 0.1q0 0.3 0 0.5q0 0.5-0.1 1q0 0.5 0 0.9q0 0.2 0 0.5h-0.1q0 0.2 0 0.4q0 0.1 0 0.2q0 0.3 0 0.6q-0.1 0.3-0.1 0.7q0 0.5-0.1 1q0 0.3 0 0.8q-0.1 0.4-0.1 0.8q0 0.1 0 0.1q-0.1 0.6-0.1 1.2q0 0 0 0q0 0 0 0q0 0.3-0.1 0.6q0 0.6-0.1 1.2v0.4q0 0.2-0.1 0.4q0.1 0.1 0 0.1q0 0.2 0 0.3q0 0.4-0.1 0.8q0 0.3 0 0.6q0 0 0 0q0 0.1 0 0.1q-0.2 1.2-0.3 2.4q-0.1 1-0.2 1.9q-0.4 3.7-0.9 7.3q-0.2 1.8-0.5 3.6q0 0.2-0.1 0.3q0 0.5-0.1 0.9q0 0 0 0.1q0 0 0 0.1q-0.1 0.3-0.1 0.6q0 0.1 0 0.2q0 0 0 0q0 0.1-0.1 0.2q0 0.1 0 0.1q0 0 0 0q0 0 0 0.1q0 0 0 0q0 0.2 0 0.3q-0.1 0.6-0.2 1.2q0 0 0 0q0 0.1-0.1 0.2q0 0.4-0.1 0.8q0 0.1 0 0.2q-0.2 0.9-0.3 1.9q-0.3 1.8-0.6 3.6q-0.3 1.7-0.7 3.5q0 0 0 0q-0.2 1.2-0.4 2.4q0 0-0.1 0.1q0 0 0 0q0 0 0 0q0.1 0 0 0q0 0 0 0.1q0 0 0 0q0 0 0 0q0 0 0 0q0 0.2 0 0.3v0.1q0 0-0.1 0q0 0 0 0q0 0 0 0.1q0 0 0 0q0 0.3-0.1 0.5q0 0 0 0q-0.7 3.5-1.4 7q0 0 0 0q-0.3 1.1-0.5 2.2q-0.3 1.1-0.5 2.2q-0.4 1.8-0.9 3.6q0 0 0 0q0 0.1 0 0.2q-0.1 0.3-0.2 0.6q-0.2 0.9-0.4 1.7q0 0.2-0.1 0.4q-0.5 2-1 3.9q0 0.1-0.1 0.3q-0.1 0.5-0.3 1.1q0 0.2-0.1 0.5q-0.1 0.2-0.1 0.4q-0.3 1.2-0.7 2.5q-0.1 0.5-0.3 1q-0.5 1.8-1 3.6q-0.2 0.5-0.3 0.9q-0.1 0.3-0.1 0.6q-0.1 0.1-0.2 0.3q-0.2 0.9-0.5 1.8q-0.5 1.7-1 3.4q-0.6 1.7-1.1 3.4q0 0 0 0q-0.6 1.7-1.2 3.3q-0.7 2.1-1.4 4.2q-0.7 2-1.5 4.1q0 0 0 0q-1.4 4.1-3.1 8.1q0 0 0 0q-1.3 3.5-2.8 6.9q-1 2.6-2.2 5.2q-1.7 4-3.5 7.9q0 0 0 0q-0.6 1.3-1.3 2.6q-0.2 0.5-0.5 1q-0.1 0.2-0.2 0.5q-0.3 0.6-0.5 1.1q-0.1 0.3-0.3 0.5q0 0.1 0 0.1q-0.2 0.4-0.4 0.7q0 0.1-0.1 0.2q-0.1 0.3-0.2 0.5q-0.4 0.8-0.8 1.5q-1.7 3.4-3.4 6.8q0 0 0 0q-2 3.8-4.1 7.5q-2.2 3.8-4.3 7.5q-3.3 5.6-6.8 11q0 0 0 0q-0.9 1.4-1.8 2.7q-0.7 1.2-1.5 2.4q-0.1 0.1-0.2 0.3q-0.4 0.5-0.7 1q-0.6 0.8-1.1 1.7q0 0 0 0q-0.9 1.3-1.8 2.6q-5 7.1-10.2 13.9q-2.6 3.4-5.3 6.7q-1.3 1.7-2.7 3.4q-2.7 3.2-5.5 6.5c-41.1 47.4-94.5 83.9-155.3 104.5q-2.1 0.7-4.2 1.4q0 0 0 0q-2.1 0.7-4.2 1.3q-4.2 1.3-8.4 2.5q-2.1 0.6-4.2 1.2q0 0 0 0q-4.3 1.1-8.6 2.2q0 0 0 0q-4.3 1-8.6 2q0 0 0 0q-2.3 0.5-4.6 1q-4.7 0.9-9.3 1.7q-2.4 0.4-4.7 0.8q-1.9 0.3-3.7 0.6q-1 0.1-1.9 0.3q-1.6 0.2-3.3 0.4q-2 0.3-3.9 0.6q-0.4 0-0.8 0.1q-2.1 0.2-4.1 0.4q-0.1 0.1-0.1 0q-2.2 0.3-4.5 0.5q-0.1 0-0.2 0q-2 0.2-4 0.4q-0.3 0-0.7 0.1q-1.6 0.1-3.2 0.2q-1.4 0.1-2.7 0.2q-1.4 0.1-2.8 0.2q-2.7 0.2-5.4 0.3q-2.7 0.1-5.3 0.2q-0.1 0-0.1 0q-1.4 0-2.8 0.1q-2 0-4 0q-2.1 0-4.1 0h-1.7q-0.8 0-1.6 0q0 0 0 0q-3.3 0-6.5-0.1q-1.6 0-3.3-0.1q-2.1-0.1-4.3-0.2q0 0 0 0q-3.2-0.1-6.5-0.3q-3.2-0.2-6.4-0.5q0 0 0 0q-4.8-0.4-9.6-0.9q-1.6-0.2-3.1-0.4h-0.1q-3.1-0.4-6.3-0.8q-1.6-0.3-3.1-0.5q-3.2-0.4-6.3-1q-4.7-0.7-9.3-1.6q-2.1-0.4-4.2-0.9q-4.1-0.8-8.2-1.8q-1.6-0.3-3.3-0.7q-1.9-0.5-3.7-1q-1.1-0.2-2.2-0.5q-1.7-0.4-3.3-0.9q-1.6-0.4-3.1-0.8q-6.9-2-13.6-4.1q-1.1-0.4-2.2-0.7q-1.1-0.4-2.3-0.8q-1.5-0.5-3-1q-1.8-0.7-3.7-1.3q-1.6-0.6-3.2-1.2q-0.1-0.1-0.2-0.1q-0.2-0.1-0.5-0.2q-0.1 0-0.3-0.1q-1.6-0.6-3.2-1.2q-1.8-0.7-3.6-1.4l16.8-9.7c36 12.9 74.7 19.9 115.1 19.9c188.4 0 341.8-153.3 341.8-341.8c0-97.5-41.1-185.6-106.8-247.9l13.6-7.9q1.4 1.4 2.8 2.8q0.1 0.1 0.3 0.3q0 0 0.1 0.1q0.1 0.1 0.2 0.2q0 0 0.1 0.1l0.2 0.2q0.2 0.2 0.4 0.4q0.1 0.1 0.2 0.1q0.1 0.2 0.3 0.4q0.1 0 0.1 0.1q0.2 0.2 0.4 0.4q0.1 0.1 0.2 0.2q0 0 0 0q0 0 0 0q0.1 0 0.1 0.1q0 0 0 0q0 0 0 0q0 0 0 0q0.1 0.1 0.2 0.2q0 0 0.1 0.1q0.1 0.1 0.3 0.3q0.3 0.3 0.7 0.7q0.1 0.1 0.2 0.3q1.4 1.4 2.8 2.8q0.2 0.3 0.5 0.5q0.1 0.1 0.1 0.2q0.3 0.3 0.5 0.5q0.4 0.4 0.7 0.7q0.3 0.4 0.6 0.7q0.3 0.3 0.5 0.5q0.2 0.3 0.4 0.5q0.1 0.1 0.2 0.2q0.1 0 0.1 0.1q0.1 0.1 0.1 0.1q0.1 0.1 0.2 0.2q0 0.1 0.1 0.1q0.1 0.1 0.2 0.2q0 0 0 0.1q0.1 0 0.1 0q0.1 0.1 0.1 0.2q0 0 0 0q0.1 0 0.1 0q0 0 0 0q0 0 0 0q0 0.1 0 0.1q0 0 0 0q0 0 0 0q0.1 0 0.1 0q0 0.1 0.1 0.1q0 0.1 0 0.1q0 0 0 0q0 0 0 0q0.1 0 0.1 0q0 0.1 0 0.1q0 0 0 0q0.1 0.1 0.1 0.1q0.1 0 0.1 0.1q0 0 0 0q0 0 0 0q0 0 0 0q0 0 0 0q0.1 0 0 0.1q0.1 0 0.1 0q0 0 0 0q0 0.1 0 0.1q0.1 0 0 0q0.1 0 0.1 0q0 0 0 0q0 0 0 0q0.1 0.1 0.2 0.2q0.5 0.6 1 1.1q0.1 0.1 0.2 0.2q0 0 0 0.1q0 0 0 0q0.2 0.1 0.2 0.2q0.1 0.1 0.1 0.1q0 0 0 0q0 0 0 0q0 0 0 0q0.1 0.1 0.1 0.1q0 0 0.1 0.1q0.1 0.1 0.2 0.2q0 0.1 0.1 0.1q0 0 0 0.1q0.1 0 0.1 0.1q0 0 0 0q0.1 0.1 0.1 0.1q0 0 0 0q0.1 0 0 0q0.1 0.1 0.1 0.1q0.1 0 0.1 0.1q0.2 0.2 0.3 0.4q0.1 0 0.1 0.1q0 0 0 0q0.1 0 0.1 0.1q0.1 0.1 0.2 0.2q0 0 0 0q0.1 0 0.1 0.1q0 0 0 0q0 0 0 0q0 0 0 0q0.1 0.1 0 0.1q0.1 0 0.1 0q0 0 0 0q0 0 0 0q0 0 0 0q0 0 0 0q0.1 0.1 0 0.1q0.1 0 0.1 0q0 0 0 0q0 0 0 0q0.1 0.1 0 0.1q0.1 0 0.1 0q0 0 0 0q0.1 0.1 0.1 0.1q0 0.1 0 0.1q0.1 0 0 0q0.1 0 0.1 0q0 0 0 0.1q0 0 0 0q0.1 0 0 0q0.1 0 0.1 0.1q0.1 0 0 0q0.1 0 0.1 0.1q0 0 0 0q0.1 0 0.1 0.1q0 0 0 0.1q0.1 0 0.1 0q0 0 0 0q0 0 0 0q0.1 0.1 0.1 0.1q0 0 0 0q0 0 0 0q0 0 0 0q0 0 0 0q0 0.1 0.1 0.1q0 0 0 0q0.1 0.2 0.3 0.3q0.3 0.4 0.5 0.7q1.7 1.8 3.2 3.7q1.6 1.9 3.2 3.8q0.8 1 1.6 2q0.3 0.3 0.5 0.6q0.1 0.1 0.2 0.2q0.8 0.9 1.5 1.9q0.2 0.2 0.4 0.5q0.1 0 0.1 0.1q0.6 0.7 1.2 1.5q0.4 0.5 0.8 1q0 0 0 0.1q0.2 0.2 0.3 0.4q0.9 1.1 1.7 2.2q1.1 1.3 2 2.6q1 1.3 2 2.7q0.9 1.1 1.7 2.3q0.1 0.1 0.2 0.3q0 0 0.1 0q0 0.1 0 0.1q1 1.3 1.9 2.7q1.1 1.6 2.2 3.1q5 7.2 9.6 14.7q0 0 0 0q0.3 0.5 0.7 1.1q0 0 0 0.1q0.2 0.2 0.3 0.4q0 0 0.1 0.1q0.4 0.6 0.8 1.3q0 0.1 0.1 0.3q0.5 0.8 1 1.6q0.5 0.8 1 1.6q0.2 0.5 0.5 0.9q0.7 1.2 1.4 2.5q0.2 0.2 0.3 0.5q0.6 0.9 1.1 1.9q0 0 0.1 0q0 0 0 0.1q0.1 0.2 0.2 0.4q0 0 0 0q0.1 0.2 0.2 0.3q0 0.1 0 0.1q0.3 0.5 0.6 1.1q0.3 0.5 0.6 1q0.1 0.2 0.2 0.4q0.1 0.2 0.2 0.3q0.2 0.3 0.3 0.5q0.6 1.1 1.1 2.1q0 0 0.1 0.1q0 0 0 0q0 0.1 0 0.1q0 0 0 0q0 0.1 0.1 0.1q0.3 0.5 0.5 1q0.7 1.2 1.2 2.3q0.3 0.6 0.6 1.1q0.2 0.2 0.2 0.5q0.6 0.9 1 1.9q0.2 0.2 0.3 0.5q0.1 0.3 0.3 0.6q0.2 0.4 0.4 0.8q0.7 1.3 1.3 2.6q0 0 0 0q0.1 0.1 0.1 0.2q0.1 0.2 0.2 0.3q0 0 0 0.1q0 0.1 0.1 0.2q0 0 0 0q0 0 0 0q0 0 0 0q0 0 0 0.1q0 0 0 0q0.1 0 0.1 0q0 0.1 0 0.1q0 0 0 0q0.1 0.1 0.1 0.1q0 0 0 0.1q0.1 0.1 0.1 0.2q0 0 0 0q0 0.1 0 0.1q0.1 0 0.1 0.1q0.1 0.3 0.2 0.5q0.4 0.7 0.7 1.4q0 0 0 0q0.2 0.4 0.4 0.8q0.3 0.6 0.6 1.3q0.3 0.7 0.7 1.4q0.8 1.7 1.6 3.5q3.2 7 6.1 14.2q0.5 1.2 0.9 2.5q0.2 0.3 0.3 0.7q0.1 0.2 0.2 0.3q0.1 0.4 0.2 0.8q0.1 0.1 0.2 0.3q0 0.1 0.1 0.3q0 0.1 0.1 0.3q0 0 0 0q0.1 0.2 0.2 0.4q0.1 0.5 0.3 0.9q0.3 0.7 0.6 1.5q0.3 0.8 0.6 1.7q0.1 0.3 0.2 0.6q0 0 0 0.1q0 0 0 0q0 0 0 0q0.1 0.2 0.2 0.5q0.1 0.1 0.2 0.3q0 0.1 0 0.2q0.1 0.1 0.1 0.3q0.1 0.1 0.1 0.2q0.3 0.9 0.6 1.7q0.2 0.5 0.3 1q0.2 0.2 0.2 0.5q0.2 0.4 0.3 0.7q0 0.1 0.1 0.3q0.1 0.3 0.2 0.7q0.1 0.1 0.1 0.2q0.7 1.9 1.3 3.9q1.4 4.2 2.7 8.5q1.3 4.2 2.5 8.6q2.4 8.6 4.3 17.4q0.5 2.2 1 4.5q0.9 4.4 1.7 8.8v0.1q0.4 1.9 0.7 3.9q0.7 3.9 1.3 7.8q0.3 2 0.5 4q0.6 4 1 8q0.5 4 0.8 8q0 0 0 0q0.2 2 0.4 4q0.1 1.8 0.2 3.5q0.1 0.3 0.1 0.6q0 1.1 0.1 2.3q0.1 0.7 0.1 1.4q0 0.2 0 0.3q0.1 1.3 0.1 2.5q0.1 0.7 0.1 1.3q0 0.5 0 0.9q0.1 1.4 0.2 2.8q0 0.2 0 0.4q0 0.3 0 0.6q0 0.4 0 0.7q0 0.2 0 0.3v0.2q0.1 0.6 0.1 1.2q0 0.4 0 0.8v0.2q0 0.2 0 0.3q0 0.4 0 0.7q0 0.6 0 1.2q0.1 1.1 0.1 2.2q0 0.3 0 0.5q0 1.8 0 3.6z" /><path class="s0" d="m697.4 219.6c-8.4-10.1-17.2-19.7-26.6-28.9c9.4 9.1 18.3 18.8 26.6 28.9z" /><path class="s0" d="m697.4 219.6q9.7 11.7 18.4 24.3q-8.7-12.5-18.4-24.3z" /><path class="s0" d="m715.6 649.5q3.6-5.3 7.1-10.7q-3.5 5.4-7.1 10.7z" /><path class="s0" d="m715.8 243.9q5 7.2 9.6 14.7q-4.6-7.5-9.6-14.7z" /><path class="s0" d="m722.7 638.8q3.5-5.4 6.8-11q-3.3 5.6-6.8 11z" /><path class="s0" d="m737.9 612.8q4-7.7 7.7-15.5q-3.7 7.8-7.7 15.5z" /><path class="s0" d="m745.6 597.3q1.8-4 3.5-7.9q-1.7 4-3.5 7.9z" /><path class="s0" d="m725.4 258.6c10.8 17.3 20.2 35.7 27.9 54.9c-7.8-19.2-17.1-37.6-27.9-54.9z" /><path class="s0" d="m751.3 584.2q1.5-3.4 2.8-6.9q-1.3 3.5-2.8 6.9z" /><path class="s0" d="m753.3 313.5q4.1 10.3 7.6 20.9q-3.5-10.6-7.6-20.9z" /><path class="s0" d="m754.1 577.3q3.2-8.1 6-16.4q-2.8 8.3-6 16.4z" /><path class="s0" d="m763.6 342.9q-1.3-4.3-2.7-8.5q1.4 4.2 2.7 8.5z" /><path class="s0" d="m770.4 368.9q-1.9-8.8-4.3-17.4q2.4 8.6 4.3 17.4z" /><path class="s0" d="m773.1 382.2q-0.8-4.4-1.7-8.8q0.9 4.4 1.7 8.8z" /><path class="s0" d="m773.1 382.3q2.9 15.6 4.3 31.7q-1.4-16.1-4.3-31.7z" /><path class="s0" d="m778.9 446.5c0 40-6.6 78.5-18.8 114.4c12.2-35.9 18.8-74.3 18.8-114.4q0-16.4-1.5-32.5q1.5 16.1 1.5 32.5z" /><path class="s0" d="m90.2 315.7q0-0.1 0.1-0.2q-0.1 0.1-0.1 0.1q0 0.1 0 0.1z" /><path class="s0" d="m150.5 215.3q1-1.1 1.9-2.2q-0.9 1-1.7 2q-0.1 0.1-0.2 0.2z" /><path class="s0" d="m197.1 169.8q0.7-0.6 1.5-1.2q-1.4 1.1-2.8 2.2q0.6-0.5 1.3-1z" /><path class="s0" d="m208.7 160.7q3.5-2.6 7-5.1q-3.5 2.5-7 5.1z" /><path class="s0" d="m240.9 139.2q3.7-2.2 7.4-4.3q-3.7 2.1-7.4 4.3z" /><path class="s0" d="m271.4 123.1q3.9-1.8 7.9-3.5q-4 1.7-7.9 3.5z" /><path class="s0" d="m295.4 113q4.1-1.6 8.2-3q-4.1 1.4-8.2 3z" /><path class="s0" d="m324.5 103.3q4.2-1.2 8.5-2.3q-4.3 1.1-8.5 2.3z" /><path class="s0" d="m333 101q2.1-0.5 4.3-1q4.3-1.1 8.6-2q2.2-0.5 4.4-0.9q-4.4 0.8-8.7 1.8q-4.3 1-8.6 2.1z" /><path class="s0" d="m376.7 92.7q4.5-0.6 9-1.1q-4.5 0.5-9 1.1z" /><path class="s0" d="m408.4 90.1q4.5-0.2 9.2-0.3q-4.7 0.1-9.2 0.3z" /><path class="s0" d="m422.2 89.8q4.1 0 8.3 0.1q-4.2-0.1-8.3-0.1q-2.4 0-4.6 0q2.3 0 4.6 0z" /><path class="s0" d="m452.4 91.1q4.3 0.3 8.5 0.8q-4.2-0.5-8.5-0.8z" /><path class="s0" d="m494.4 97.1q4.1 0.9 8.2 1.8q-4.1-0.9-8.2-1.8z" /><path class="s0" d="m526.7 105.4q4 1.2 7.9 2.5q-3.9-1.3-7.9-2.5z" /><path class="s0" d="m554 115q-1.9-0.8-3.8-1.5q1.9 0.7 3.8 1.5z" /><path class="s0" d="m495.5 398.2q-2.1 0.3-4.1 0.8q2-0.5 4.1-0.8z" /><path class="s0" d="m499.5 397.6q-1.6 0.2-3.1 0.4q1.5-0.2 3.1-0.4z" /><path class="s0" d="m503.6 397.4q-1.5 0-2.9 0.1q1.4-0.1 2.9-0.1z" /><path class="s0" d="m507.6 397.3q-1.3 0-2.7 0q1.4 0 2.7 0z" /><path class="s0" d="m563.1 483q0.3-0.7 0.5-1.4q-0.2 0.7-0.5 1.4z" /><path class="s0" d="m511.6 397.6q-1.3-0.1-2.5-0.2q1.2 0.1 2.5 0.2z" /><path class="s0" d="m672.9 442.3q-0.2-3.8-0.6-7.7q-0.2-1.9-0.5-3.8q0.1 0.1 0.1 0.3q0 0.1 0 0.3q0.1 0.7 0.2 1.3q0.1 1 0.2 1.9q0.4 3.8 0.6 7.7zm-0.1 15.5v0.1q0 0.3 0 0.5q0-0.3 0-0.6zm-0.8 9.8q0 0.2 0 0.5q-0.1 0.2-0.1 0.5q0.1-0.5 0.1-1zm-3.9 20.7q-0.1 0.3-0.2 0.5q-0.3 1.2-0.6 2.3q0.4-1.4 0.8-2.8zm-6.3-95.6q-0.3-0.7-0.6-1.4q0 0.1 0 0.1q0.1 0.1 0.1 0.2q0.1 0.2 0.2 0.4q0 0.2 0.1 0.4q0.1 0 0.1 0.1q0 0.1 0.1 0.2zm-2.7 120.6q-0.1 0.2-0.2 0.3q0.1-0.1 0.2-0.3q0 0 0 0zm-0.5-127.8q-0.5-0.9-0.9-1.8q0.1 0.2 0.2 0.5q0.4 0.7 0.7 1.3zm-0.9-1.8q-0.9-1.8-1.8-3.6q0.2 0.3 0.3 0.7q0 0 0 0q0.5 0.9 0.9 1.8q0.3 0.5 0.6 1.1zm-1.8-3.6q-1.5-2.7-3-5.4c-11-19-25.5-34.7-42.2-46.8q-2.7-1.9-5.5-3.8q0.3 0.2 0.6 0.4q2.5 1.7 4.9 3.4c16.7 12.1 31.2 27.8 42.2 46.8q0.7 1.2 1.3 2.3q0.7 1.2 1.3 2.5q0.2 0.3 0.4 0.6zm-10.2 156.4q0 0.1-0.1 0.1q0.1 0 0.1-0.1q0 0 0 0zm-2.9 4q-0.7 1-1.5 1.9q-0.5 0.7-0.9 1.3q-0.3 0.3-0.6 0.7q-0.8 0.9-1.6 1.9q-0.1 0.2-0.3 0.4q0.6-0.7 1.2-1.5q0.7-0.8 1.4-1.7q1.2-1.5 2.3-3zm-40.2-218q-3.3-2.1-6.7-4q0.6 0.3 1.1 0.6q0.6 0.4 1.3 0.8q1.2 0.7 2.5 1.5q0.8 0.5 1.6 1q0.1 0 0.1 0q0 0 0.1 0.1zm-9.7-5.6q-0.6-0.3-1.3-0.7q-0.3-0.1-0.6-0.3q-0.3-0.2-0.7-0.3q0.1 0 0.2 0q0.3 0.2 0.7 0.4q0.1 0 0.2 0.1q0 0 0.1 0.1q0.2 0.1 0.4 0.2q0.3 0.1 0.6 0.3q0.1 0 0.1 0q0.1 0.1 0.1 0.1q0.1 0.1 0.2 0.1zm-9.5 142.9q-0.1 0.2-0.1 0.5q0-0.3 0.1-0.5q0 0 0 0zm-0.9-147.9q-2.3-1-4.6-1.9q1 0.4 1.9 0.7q1.3 0.6 2.7 1.2zm-0.4 153.7q0 0.1 0 0.2q0-0.1 0-0.2q0 0 0 0zm-4.2-155.6q-0.6-0.2-1.2-0.5q0.2 0.1 0.3 0.2q0.1 0 0.2 0q0.4 0.2 0.7 0.3zm-4.5-1.7q-0.3-0.1-0.5-0.2q-0.7-0.2-1.4-0.5q0 0 0 0q0.8 0.3 1.6 0.6q0.1 0 0.3 0.1zm-9.1 96.4q0-0.1-0.1-0.2q-0.2-0.1-0.3-0.2q0.2 0.2 0.4 0.4zm-5.4 95q-0.1 0.1-0.2 0.1q0.1 0 0.1-0.1q0.1 0 0.1 0zm-5.4-197q-1.5-0.3-3.1-0.6q-0.3-0.1-0.6-0.1q0.3 0 0.5 0q0.1 0.1 0.2 0.1q0.1 0 0.1 0q0.1 0 0.2 0q0.1 0.1 0.2 0.1q0 0 0.1 0q0.3 0 0.6 0.1q0.5 0.1 1.1 0.2q0.4 0.1 0.7 0.2zm-2.2 92.7q-0.1 0-0.1 0q0 0 0.1 0zm-1.7-0.8q-0.1-0.1-0.2-0.1q0.1 0 0.2 0.1zm-0.6-92.8q-0.5-0.1-1.1-0.2q0.3 0.1 0.6 0.1q0.3 0.1 0.5 0.1zm-1.1-0.2q-0.8-0.1-1.7-0.3q-0.8-0.1-1.7-0.2q0.9 0.1 1.8 0.2q0.8 0.2 1.6 0.3zm-2 91.3q-0.1 0-0.2 0q-0.2-0.1-0.5-0.3q0.3 0.2 0.7 0.3zm-2-91.9q-0.8-0.1-1.7-0.2q-5.1-0.7-10.3-1.1q-0.3 0-0.6 0q0.2 0 0.4 0q1.8 0.1 3.6 0.3q1.7 0.1 3.3 0.3q0.1 0 0.2 0q0.2 0 0.3 0.1q0 0 0.1 0q0 0 0 0q0.9 0.1 1.7 0.2q0.9 0.1 1.7 0.2q0.7 0.1 1.3 0.2zm-9.2 88.5q-0.2 0-0.3 0q0.1 0 0.3 0zm-2-0.3q-0.1 0-0.3-0.1q0.2 0.1 0.3 0.1zm-2.9-89.6q-0.8 0-1.5 0q-0.7-0.1-1.4-0.1q0.6 0 1.1 0q0.9 0.1 1.8 0.1zm-1.1 89q-0.1 0-0.2 0q0.1 0 0.2 0zm-1.9-0.1q-0.1 0-0.3 0q-0.2 0-0.4-0.1q0.3 0 0.7 0.1zm-1.3-89q-0.7 0-1.4 0q-0.8-0.1-1.7-0.1q0.9 0 1.9 0q0.3 0.1 0.6 0.1q0.3 0 0.6 0zm-3.1-0.1q-1 0.1-2.1 0.1q0 0 0.1 0q0.1-0.1 0.3-0.1zm-17.9 1.1q-0.8 0.1-1.7 0.2q-0.2 0.1-0.3 0.1q0.5-0.1 0.9-0.2q0.4 0 0.8-0.1q0.2 0 0.3 0zm-4.1 0.6q-0.3 0-0.6 0.1q-0.4 0-0.7 0.1l0.2-0.1q0.5 0 1.1-0.1zm-14.8 2.9q-0.7 0.2-1.5 0.4q0.1 0 0.3 0q0.6-0.2 1.2-0.4zm-3 0.9q-1 0.2-1.9 0.5q-0.3 0.1-0.6 0.2q0.3-0.1 0.6-0.2q0.4-0.1 0.7-0.2q0.2-0.1 0.3-0.1q0.4-0.1 0.9-0.2zm-29.6 11.6q-2.9 1.5-5.7 3.1l-143.3 82.8l143.3-82.8q2.8-1.6 5.7-3.1zm-114.4 167q-0.3 0.1-0.5 0.1q0.3 0 0.5-0.1zm-16.7 1.5q-0.2 0-0.5 0q-0.4 0-0.8-0.1q0.7 0.1 1.3 0.1zm-1.3-0.1q-0.1 0-0.2 0q-0.5-0.1-1-0.2q-0.1 0-0.2 0q0.7 0.1 1.4 0.2zm-1.4-0.2q-0.4-0.1-0.7-0.1q-0.4-0.1-0.7-0.2q0.7 0.2 1.4 0.3zm-1.4-0.3q-0.2 0-0.3 0q-0.2-0.1-0.4-0.1q0.3 0.1 0.7 0.1zm-1.8-0.4q-0.2 0-0.4-0.1q-0.3 0-0.6-0.1q0.5 0.1 1 0.2zm-1-0.2q-0.1 0-0.2-0.1q-0.1 0-0.2 0q-0.4-0.1-0.9-0.3q0 0-0.1 0q0.7 0.2 1.4 0.4zm-1.4-0.4q-0.4-0.1-0.8-0.3q-0.3 0-0.6-0.1q0.7 0.2 1.4 0.4zm-11.4-79.9q-0.2 0.1-0.3 0.2q0.1-0.1 0.3-0.2zm-6 70q-0.5-0.5-1-1q0.5 0.5 1 1zm-5-5.4q-0.1-0.1-0.2-0.2q-0.3-0.5-0.7-1q0.4 0.6 0.9 1.2zm-4.9 292l-16 9.3c-6.4-3-12.6-6.2-18.7-9.5l15.4-8.9q9.5 4.9 19.3 9.1zm-70.7-41.5l-14.2 8.2q-7.3-5.8-14.4-12l13.9-8q7.2 6.1 14.7 11.8z" /><path class="s0" d="m254.8 778.3l-187.5 108.3c-21.3 12.2-48.5 5-60.7-16.3c-12.3-21.3-5-48.4 16.2-60.7l150.8-87c4.6 4.1 9.3 8.2 14.1 12.1l-156.1 90.1c-12.8 7.4-17.2 23.9-9.8 36.7c7.4 12.8 23.8 17.3 36.7 9.9l178.1-102.9q9 5.1 18.2 9.8z" /><path class="s0" d="m561.8 485.9q-0.2 0.5-0.5 1q0.3-0.6 0.6-1.2q0 0.1-0.1 0.2z" /><path class="s0" d="m556.9 494.5q0.1-0.1 0.2-0.3q-0.1 0.2-0.2 0.3z" /><path class="s0" d="m548.5 504.2q-0.7 0.7-1.4 1.3q0.7-0.6 1.4-1.3z" /><path class="s0" d="m171.5 434.7q0 0.8-0.1 1.5q0-0.1 0-0.3q0.1-0.6 0.1-1.2zm3.1-22.8q-0.5 2.3-1 4.7q0.2-1.2 0.5-2.4q0.2-1.1 0.5-2.3zm3.8 77.1q-0.1-0.4-0.2-0.7q-0.2-0.5-0.3-0.9q0.2 0.8 0.5 1.6zm13.6-122.2q-0.6 1.1-1.2 2.1q0.3-0.4 0.5-0.9q0.4-0.6 0.7-1.2zm26.4-33.1q-0.2 0.2-0.4 0.4q0.2-0.2 0.4-0.4zm3.2-3q-0.9 0.9-1.8 1.7q0.9-0.8 1.8-1.7zm1.9-1.6q-0.9 0.8-1.9 1.6q1-0.8 1.9-1.6zm43.8 254.3q-1.1-0.4-2.1-0.8q1 0.4 2.1 0.8zm15.8-92.3q0 0 0 0q0 0 0 0zm1.6 1.2v0.1q-0.1-0.1-0.2-0.2zm1.9 1.4q-0.4-0.3-0.8-0.6q0.3 0.2 0.5 0.4q0.2 0.1 0.3 0.2zm5.4 3.3q-0.6-0.3-1.2-0.7q0.3 0.2 0.6 0.4q0.3 0.2 0.6 0.3zm1.4 0.8q-0.3-0.2-0.6-0.3q0 0 0 0q0-0.1-0.1-0.1q0 0 0 0q0.2 0.1 0.5 0.2q0.1 0.1 0.2 0.2zm7.1 3.1q-0.7-0.2-1.4-0.5q0.6 0.2 1.3 0.5q0.1 0 0.1 0zm2.3 0.8q-0.3-0.1-0.5-0.2q0.1 0.1 0.2 0.1q0.1 0 0.3 0.1zm14.3 2.8q-0.7 0-1.5-0.1q0.1 0 0.2 0q0.7 0.1 1.3 0.1zm6.7 0.2q-0.2 0-0.4 0q0.1 0 0.1 0zm3-0.2q-0.6 0.1-1.2 0.1q0.1 0 0.2 0q0.5-0.1 1-0.1zm1.8 88.9q-0.3 0.1-0.6 0.1q-0.3 0-0.6 0q0.6 0 1.2-0.1zm6.5-0.4q-0.5 0.1-1 0.1q0 0 0 0q-0.4 0-0.8 0.1q0.9-0.1 1.8-0.2zm8.6-1q-0.2 0-0.4 0.1q-0.1 0-0.1 0q-0.4 0-0.7 0.1q0.6-0.1 1.2-0.2zm39.4-11.5q-0.9 0.4-1.7 0.8q-0.2 0.1-0.4 0.2q1-0.5 2.1-1zm100.7-159.8q0 0 0 0h-0.1zm4.8-2.3q-0.5 0.2-1 0.4q0.2-0.1 0.3-0.2q0.1 0 0.3-0.1q0.2-0.1 0.4-0.1zm15.1-8.2q-0.1 0-0.1 0q0 0 0.1 0zm1.7-0.6q0 0.1 0 0.1q-0.3 0-0.5 0.1q0.2-0.1 0.5-0.2zm2.3-0.6q-0.4 0.1-0.8 0.2q0.1 0 0.2 0q0.3-0.1 0.6-0.2zm2.3-0.5q-0.7 0.1-1.3 0.3q0.1 0 0.2-0.1q0.5-0.1 1.1-0.2zm3.1-0.4q-0.4 0-0.8 0.1q-0.9 0.1-1.7 0.2q-0.1 0-0.2 0.1q0.1-0.1 0.2-0.1q0.5-0.1 1-0.1q0.2-0.1 0.5-0.1q0 0 0 0q0.1 0 0.2-0.1q0.1 0 0.2 0q0.3 0 0.6 0zm1.8-0.2q-0.1 0-0.2 0q0 0 0.1 0zm4.7-0.1q-0.3 0-0.6 0h0.3q0.2 0 0.3 0zm1.4 0.1q-0.7-0.1-1.4-0.1q0.3 0 0.6 0q0.3 0 0.5 0q0.1 0 0.2 0q0 0 0 0q0.1 0 0.1 0.1zm3.6 0.3q-1.8-0.2-3.6-0.3q0.3 0 0.5 0q0.5 0 1 0.1q0.7 0 1.4 0.1q0.3 0.1 0.7 0.1zm3.7 0.7q-1.6-0.3-3.2-0.6q0.6 0.1 1.2 0.2q0 0 0 0q0 0 0 0q0.3 0.1 0.7 0.1q0.5 0.1 1.1 0.3q0.1 0 0.2 0zm4.6 1.4q-0.6-0.2-1.1-0.4q-1.6-0.5-3.3-0.9q0.5 0.1 1 0.2q0.6 0.2 1.3 0.4q0 0 0.1 0q0.2 0.1 0.4 0.2q0.4 0 0.7 0.2q0.1 0 0.2 0q0.4 0.1 0.7 0.3zm1 0.4q-0.2-0.1-0.5-0.2q0.1 0 0.1 0q0.1 0 0.1 0q0.2 0.1 0.3 0.2zm3.2 1.3q-0.8-0.4-1.6-0.7q0.3 0.1 0.5 0.2q0.1 0 0.2 0.1q0.5 0.2 0.9 0.4zm-1.6-0.7q-0.8-0.3-1.6-0.6q0.5 0.1 1 0.3q0.3 0.1 0.6 0.3zm4.9 2.4q-1.6-0.9-3.3-1.7q0.2 0.1 0.4 0.2q0.7 0.3 1.3 0.6q0 0 0.1 0.1q0.6 0.3 1.2 0.6q0.2 0.1 0.3 0.2zm1.4 0.9q-0.7-0.5-1.4-0.9q0.5 0.3 0.9 0.6q0.3 0.1 0.5 0.3zm1.1 0.6q-0.4-0.2-0.8-0.5q0.1 0.1 0.3 0.2q0.2 0.2 0.5 0.3zm0.8 0.6q0 0 0 0q0 0 0 0zm3.5 2.7q-1.6-1.3-3.3-2.5q0.6 0.3 1.1 0.8q0.6 0.4 1.1 0.8q0 0 0.1 0.1q0.5 0.4 1 0.8zm1.1 1q-0.4-0.4-0.8-0.7q0.4 0.3 0.7 0.7q0.1 0 0.1 0zm3.1 3.1q-0.4-0.4-0.8-0.8q-0.4-0.4-0.7-0.8q-0.4-0.4-0.8-0.8q0.2 0.3 0.5 0.5q0.1 0.2 0.3 0.4q0.2 0.1 0.3 0.3q0.2 0.1 0.3 0.3q0.1 0.1 0.2 0.1q0.3 0.4 0.7 0.8zm1.7 2v0.1l-0.1-0.1q0 0 0-0.1q0 0.1 0.1 0.1zm1.9 2.8q-0.3-0.5-0.6-1q0 0 0 0q0 0 0 0q0.3 0.5 0.6 1zm4.3 41.7q-0.3 0.7-0.6 1.4q-0.1 0.2-0.2 0.4q0.4-0.8 0.8-1.8zm0.5-32.4q-0.2-0.7-0.5-1.3q0.2 0.5 0.4 1q0.1 0.1 0.1 0.3zm0.2 30.6q-0.1 0.3-0.2 0.5q-0.3 0.7-0.5 1.3q0.3-0.8 0.7-1.8zm0.3-0.9q-0.1 0.2-0.1 0.3q-0.1 0.2-0.1 0.4q0 0-0.1 0.1q0 0 0 0q0 0 0 0q0 0.1 0 0.1q0 0 0 0q0.1-0.4 0.3-0.9zm0-28.3q-0.1-0.4-0.2-0.8q0 0.1 0 0.2q0 0 0.1 0.1q0 0.1 0 0.1q0 0.1 0.1 0.2q0 0.1 0 0.2zm1.3 4.6q-0.2-0.7-0.3-1.3q0 0.1 0.1 0.3q0 0.1 0 0.3q0.1 0.3 0.2 0.7zm0 18.9q-0.1 0.5-0.2 0.9q-0.1 0.6-0.3 1.2q-0.1 0.4-0.2 0.9q-0.1 0.3-0.2 0.5q0 0.2-0.1 0.4q0.3-0.9 0.5-1.8q0.3-1.1 0.5-2.1zm0.5-16.1q-0.2-1.4-0.5-2.7q0 0.1 0.1 0.3q0 0.1 0 0.2q0 0 0 0.1q0.1 0.4 0.2 0.7q0.1 0.7 0.2 1.4zm0.5 4.1q-0.1-1.5-0.3-3.1q0 0.2 0 0.4q0.1 0.5 0.1 1q0.1 0.7 0.1 1.5q0 0.1 0.1 0.2zm30.3-316.5l-15.4 8.9q-9.5-4.9-19.3-9.1l16-9.3q9.5 4.5 18.7 9.5zm50.7 53.1l-93.9 54.2l-92.4 53.4q-0.1 0-0.1 0q-0.1 0.1-0.1 0.1q0 0-0.1 0zm13.9-8l-13.9 8q-7.1-6.1-14.6-11.8l14.1-8.2q7.3 5.9 14.4 12z" /><path class="s0" d="m559.1 490.9q0.3-0.4 0.5-0.8q-0.2 0.4-0.5 0.8z" /><path class="s0" d="m553.6 498.8q0.6-0.7 1.1-1.4q-0.5 0.7-1.1 1.4z" /><path class="s0" d="m515.5 398.1q-1.1-0.2-2.3-0.3q1.2 0.1 2.3 0.3z" /><path class="s0" d="m519.4 398.9q-1.1-0.3-2.2-0.5q1.1 0.2 2.2 0.5z" /><path class="s0" d="m521.2 399.3q1.1 0.2 2.1 0.5q-1-0.3-2.1-0.5z" /><path class="s0" d="m187 714.8l-13.4 7.8q-6.8-6.2-13.3-12.6l13.2-7.7q6.6 6.4 13.5 12.5zm103.3 63.3l-16.2 9.3q-9.8-4.3-19.3-9.1l15.5-8.9q1.2 0.6 2.4 1.1q3.7 1.8 7.5 3.4q2.5 1.1 5 2.1q2.6 1.1 5.1 2.1zm299.3-663.4l-15.5 9q-9.9-4.7-20.1-8.7l16.2-9.4q9.8 4.3 19.4 9.1zm94.5 68.4l-13.3 7.6q-6.6-6.4-13.5-12.4l13.5-7.8q6.8 6.1 13.3 12.6z" /><path class="s0" d="m606.6 595.5l-299.5 172.9q-10.6-3.8-20.8-8.3l311.5-179.8q1.4-0.9 2.8-1.7q0.8-0.5 1.7-1q0.2-0.2 0.5-0.3q0.1-0.1 0.3-0.2q0-0.1 0.1-0.1q0.3-0.2 0.4-0.3q1.3-0.8 2.5-1.6q0.5-0.3 1-0.6q0.5-0.4 1-0.7q0.6-0.5 1.3-0.9q0.7-0.5 1.4-1.1q1.1-0.7 2.1-1.5q0 0 0.1-0.1q0.2-0.1 0.4-0.3q0.1 0 0.2-0.1q0.4-0.3 0.7-0.6q0.1 0 0.2-0.1q0 0 0.1-0.1q0.2-0.1 0.3-0.2q1-0.8 2-1.6q1-0.8 1.9-1.6q0 0 0.1 0q0.5-0.5 1.1-1q0.6-0.4 1.2-0.9q0.9-0.9 1.9-1.8q0.5-0.4 1-0.8q1-1 2-1.9q1-1 2-1.9q0-0.1 0.1-0.1q0 0 0 0q0.9-0.9 1.7-1.8q0.6-0.5 1.2-1.1q0.3-0.3 0.6-0.6q0.2-0.3 0.4-0.5q0.5-0.5 0.9-1q1-1 1.9-2q0.4-0.5 0.9-1q0.4-0.5 0.9-1.1q0.6-0.7 1.2-1.4q0.6-0.7 1.2-1.5q0.7-0.8 1.4-1.7q1.2-1.5 2.3-3q0.8-1 1.5-2q0 0 0 0q0.3-0.4 0.6-0.8q0.1-0.1 0.1-0.2q0.2-0.2 0.3-0.4q0-0.1 0.1-0.1q0.1-0.2 0.2-0.4q0.1 0 0.1-0.1q0 0 0 0q1.4-2 2.8-4.1q1.3-2 2.6-4.1q1.1-1.8 2.1-3.7q0.2-0.2 0.3-0.5q0.1-0.2 0.3-0.4q0.1-0.2 0.2-0.4q0.2-0.3 0.3-0.6q0.1-0.1 0.1-0.1q0.2-0.3 0.3-0.6q0.2-0.3 0.3-0.5q0.4-0.9 0.9-1.7q1.1-2.1 2.1-4.3q0.3-0.6 0.6-1.2q0.1-0.2 0.2-0.4q0.1-0.1 0.1-0.3q0.1-0.1 0.2-0.3q0 0 0 0q0.5-1.1 1-2.2q0.5-1.1 0.9-2.2q0 0 0 0h0.1q0.4-1.2 0.9-2.3q1.8-4.5 3.3-9.1q0.5-1.4 1-2.8q0.1-0.3 0.2-0.7q0.1-0.4 0.2-0.8q0.2-0.5 0.3-0.9q0.1-0.3 0.1-0.5q0.1-0.3 0.2-0.7q0.4-1.4 0.8-2.8q0.2-1 0.5-2q0.1-0.3 0.1-0.6q0.1-0.3 0.2-0.6l0.4-1.5q0-0.1 0-0.1q0-0.1 0-0.3q0.1-0.2 0.1-0.5q0.1 0 0.1-0.1q0-0.2 0-0.4q0.2-0.4 0.2-0.9q0.1-0.2 0.1-0.4q0 0 0 0q0 0 0.1-0.1q0-0.1 0-0.2l0.1-0.7q0.3-1.2 0.5-2.3q0-0.3 0.1-0.6q0 0 0-0.1q0.3-1.4 0.5-2.8q0.2-1.3 0.4-2.6q0-0.2 0.1-0.4q0-0.4 0.1-0.7q0.1-0.9 0.2-1.8q0.1-0.5 0.1-1q0 0 0-0.1q0 0 0-0.1q0.1-0.2 0.1-0.4q0 0 0 0q0-0.2 0-0.3q0.1-0.3 0.1-0.7q0-0.2 0-0.4q0.1-0.4 0.1-0.8q0.3-2.6 0.5-5.3q0-0.2 0-0.5q0-0.1 0-0.3q0-0.1 0-0.3q0-0.3 0-0.6q0.1-0.5 0.1-0.9q0-0.4 0-0.7v-0.1q0 0 0-0.1q0 0 0 0v-0.1q0.1-0.2 0.1-0.5q0-0.6 0-1.2q0-0.7 0-1.3q0.1-5.3-0.1-10.6q0 0 0 0q-0.2-3.8-0.6-7.7q-0.2-1.9-0.5-3.8q-0.1-0.9-0.2-1.9q0 0 0 0q-0.3-1.9-0.6-3.9q0 0 0 0q-0.3-1.9-0.7-3.8q0 0 0 0q-0.2-1-0.4-1.9q0-0.2 0-0.4q-0.1 0-0.1 0q0 0 0 0q0-0.1 0-0.1q0-0.1 0-0.1q-0.1-0.4-0.1-0.7q0 0 0 0q-0.1-0.3-0.2-0.6q0 0 0 0q-0.2-1-0.4-1.9q-0.2-1-0.5-1.9q-0.4-1.9-1-3.8q0 0 0 0q-0.5-1.9-1.1-3.8q0 0 0 0q-0.6-1.9-1.2-3.8q-0.3-0.9-0.6-1.9q-0.3-0.6-0.5-1.3q-0.1-0.3-0.2-0.5q0 0 0 0q-0.7-1.9-1.4-3.7q-0.3-0.7-0.5-1.3q-0.2-0.4-0.3-0.8q-0.3-0.7-0.6-1.4q-0.3-0.5-0.5-1.1q-0.2-0.5-0.4-1q-0.8-1.7-1.6-3.4q-0.1-0.1-0.1-0.3q-0.5-0.9-0.9-1.8q-0.9-1.8-1.8-3.6q-1.5-2.7-3-5.4c-11-19-25.5-34.7-42.2-46.8q-2.7-1.9-5.5-3.8q-0.3-0.2-0.6-0.4q-0.5-0.3-1-0.6q-0.3-0.2-0.6-0.4q-0.2-0.1-0.4-0.2q-3.3-2.1-6.7-4l-0.3-0.2q-0.6-0.3-1.2-0.6q-0.5-0.3-1-0.5q-0.2-0.2-0.5-0.3q-0.6-0.3-1.3-0.7q-0.3-0.1-0.6-0.3q-0.3-0.2-0.7-0.3q0 0 0-0.1q-1.2-0.6-2.5-1.2q0 0-0.1 0q-1.3-0.6-2.6-1.2q-1.3-0.6-2.6-1.2q0 0 0 0q-2.3-1-4.6-1.9q-0.6-0.2-1.2-0.5q-1-0.3-2-0.7q-0.1 0-0.1-0.1q-0.6-0.2-1.2-0.4q-0.3-0.1-0.5-0.2q-0.7-0.2-1.4-0.5q-0.7-0.2-1.4-0.4q-0.7-0.3-1.4-0.5q0 0 0 0q-1.6-0.5-3.3-1q-2.2-0.7-4.4-1.2q-1.7-0.5-3.3-0.9q-0.5-0.1-1-0.2q0 0 0 0q-0.4-0.1-0.7-0.2q-0.4-0.1-0.8-0.2q0 0-0.1 0q-0.6-0.1-1.1-0.2q-0.2-0.1-0.5-0.1q-1.5-0.3-3.1-0.6q-0.3-0.1-0.6-0.1q-0.4-0.1-0.8-0.2q-0.5-0.1-1.1-0.2q-0.8-0.1-1.7-0.3q-0.8-0.1-1.7-0.2q-0.2-0.1-0.4-0.1q-0.1 0-0.1 0q-0.1 0-0.1 0q-0.8-0.1-1.7-0.2q-5.1-0.7-10.3-1.1q-0.3 0-0.6 0q0 0 0 0q-0.2 0-0.3 0q-0.6-0.1-1.2-0.1q-0.8 0-1.5 0q-0.7-0.1-1.4-0.1q-0.7 0-1.4 0q-0.7 0-1.4 0q-0.8-0.1-1.7-0.1q-1 0.1-2.1 0.1h-0.3q-1.7 0-3.3 0q-0.2 0.1-0.3 0.1q-0.3 0-0.6 0q-1.2 0-2.5 0.1q-1.1 0.1-2.3 0.2q-0.3 0-0.7 0q-0.4 0.1-0.8 0.1h-0.1q-0.9 0.1-1.9 0.2q-0.4 0-0.8 0.1q0 0 0 0q-0.1 0-0.1 0h-0.1q-0.8 0.1-1.5 0.2q-0.1 0-0.1 0q-0.1 0-0.1 0q-0.1 0-0.1 0q0 0 0 0q-0.1 0-0.2 0q-0.9 0.1-1.7 0.2q-0.2 0.1-0.3 0.1q0 0-0.1 0q0 0 0 0q-0.1 0-0.2 0q-0.1 0-0.1 0q0 0 0 0q-0.1 0-0.1 0q-0.1 0.1-0.2 0.1q-0.1 0-0.1 0q-0.3 0-0.7 0.1q-0.3 0-0.6 0.1q-0.3 0-0.7 0.1q-0.3 0-0.6 0.1q-0.3 0-0.7 0.1q-0.8 0.1-1.6 0.2q0 0-0.1 0q0 0.1 0 0q0 0.1 0 0.1q0 0 0 0q-0.4 0-0.8 0.1q-0.8 0.2-1.6 0.3q-0.8 0.2-1.6 0.3q-0.3 0.1-0.6 0.1q-1.5 0.4-3 0.7q-0.2 0-0.5 0.1q-0.5 0.1-1.1 0.3q-0.5 0.1-1 0.2q-0.2 0.1-0.4 0.1q-0.2 0.1-0.5 0.1q0 0 0 0q-0.8 0.2-1.5 0.4q-0.3 0.1-0.5 0.2q-0.2 0-0.3 0.1q-0.2 0-0.3 0q-0.2 0.1-0.4 0.2q-1 0.2-1.9 0.5q-0.3 0.1-0.6 0.2q0 0-0.1 0q-0.3 0.1-0.6 0.2q0 0-0.1 0q-1 0.3-2.1 0.6q-0.1 0.1-0.2 0.1q-0.7 0.2-1.4 0.5q-0.7 0.2-1.5 0.5q-2.1 0.7-4.3 1.5q-8.5 3.2-16.9 7.5q-2.8 1.5-5.6 3.1l-143.3 82.8q-0.4 0.2-0.7 0.4q-0.6 0.3-1.1 0.7q-0.2 0.1-0.4 0.2q-0.3 0.2-0.7 0.5q0 0 0 0q-0.3 0.2-0.6 0.4q0 0.1 0 0.1q-0.4 0.2-0.7 0.4q0 0-0.1 0.1q-0.2 0.2-0.5 0.4q-0.3 0.2-0.7 0.5q-0.2 0.2-0.3 0.3q-0.2 0.2-0.4 0.3q-0.1 0.1-0.2 0.2q-0.7 0.5-1.2 1q0 0.1-0.1 0.1q-0.6 0.5-1.1 1.1q-0.1 0.1-0.3 0.2q-0.4 0.5-0.8 0.9q0 0 0 0q-0.1 0-0.1 0.1q0 0-0.1 0q0 0.1 0 0.1q-0.1 0-0.1 0.1q0 0 0 0l-0.2 0.2q0 0 0 0.1q-0.1 0-0.2 0.1q-0.1 0.1-0.1 0.2q-0.1 0-0.1 0.1q-0.1 0-0.1 0q-0.2 0.2-0.3 0.4q-0.5 0.6-1 1.2q-0.4 0.5-0.8 1q-0.1 0.1-0.1 0.2q-0.1 0.1-0.2 0.2q-0.3 0.3-0.5 0.7q-0.3 0.3-0.5 0.7q-0.2 0.3-0.5 0.7q-0.2 0.3-0.4 0.7q-0.4 0.6-0.8 1.2q-0.1 0.3-0.3 0.5q-0.1 0.3-0.3 0.6q-0.1 0.1-0.1 0.2q-0.1 0.2-0.2 0.4q0 0 0 0q-0.1 0.2-0.2 0.3q-0.2 0.4-0.4 0.8q-0.1 0.1-0.1 0.2q-0.1 0.3-0.3 0.6q0 0.1 0 0.1q-0.3 0.5-0.5 1.1q0 0 0 0q-0.3 0.5-0.5 1.1q-0.1 0.2-0.2 0.5q-0.2 0.5-0.4 1.1q-0.2 0.6-0.4 1.2q-0.2 0.6-0.4 1.2q-0.1 0.2-0.1 0.4q0 0.1 0 0.1q0 0-0.1 0.1q-0.1 0.3-0.2 0.7q-0.1 0.6-0.3 1.3q-0.1 0.7-0.3 1.4q-0.2 1.3-0.4 2.5q-0.1 0.3-0.1 0.6q0 0.2-0.1 0.5q-0.1 1-0.1 2q-0.1 0.1-0.1 0.2q-0.1 1.5-0.1 3q0 2.8 0.4 5.6q0.1 0.7 0.2 1.4q0.1 0.7 0.3 1.4q0.1 0.7 0.3 1.4q0.1 0.7 0.3 1.4q0.2 0.7 0.4 1.4q0.2 0.7 0.4 1.4q0.3 0.7 0.5 1.4q0.3 0.7 0.6 1.4q1.1 2.7 2.6 5.3q0.4 0.7 0.8 1.3q0.2 0.3 0.3 0.6q0.2 0.2 0.4 0.5q0.2 0.3 0.4 0.6q0.3 0.4 0.5 0.8q0.1 0.1 0.1 0.1q0.4 0.5 0.7 1q0.1 0.1 0.2 0.2q0.2 0.2 0.3 0.4q0.3 0.4 0.6 0.7q0 0 0 0q0.5 0.6 1 1.2q0.5 0.5 1 1.1q0 0 0 0q0.3 0.2 0.5 0.5q0.3 0.3 0.5 0.5q0.6 0.5 1.1 1q1 0.9 2 1.8q0.1 0 0.2 0.1q0 0.1 0.1 0.1q0.1 0.1 0.1 0.1q0.2 0.2 0.4 0.3q0.4 0.3 0.8 0.6q0.5 0.3 0.9 0.6q0.2 0.2 0.4 0.3q0.5 0.4 1.1 0.7q0.5 0.4 0.9 0.7q0.7 0.3 1.3 0.7q1.2 0.7 2.5 1.3q0.6 0.3 1.1 0.5q0.1 0.1 0.2 0.1q0.7 0.3 1.4 0.6q0.6 0.3 1.3 0.5q0.5 0.2 0.9 0.3q0.2 0.1 0.4 0.2q0.3 0.1 0.5 0.1q0.5 0.2 0.9 0.3q0 0 0.1 0q0.5 0.2 0.9 0.3q0.1 0 0.2 0q0.4 0.2 0.8 0.2q0.9 0.3 1.9 0.5q0.1 0 0.3 0q0.3 0.1 0.7 0.2q0.5 0 0.9 0.1q0.5 0.1 1 0.2q0.1 0 0.2 0q0.4 0.1 0.8 0.1q0.3 0 0.5 0q0.2 0.1 0.3 0.1q0.5 0 1.1 0q0.1 0.1 0.1 0.1q0.2 0 0.4 0q0.3 0 0.5 0q0.2 0 0.4 0q0.2 0 0.4 0q0.6 0.1 1.2 0q0.5 0.1 1 0q0.2 0 0.3 0q0.2 0 0.5 0q0.2 0 0.4 0h0.1q0.1 0 0.2 0q0.1 0 0.1 0q0.2 0 0.4-0.1q0 0 0 0h0.1q0.1 0 0.2 0q0 0 0.1 0q0.1 0 0.2 0q0.3 0 0.7-0.1q0.2 0 0.4 0q0 0 0.1 0q0.1 0 0.2 0q0.1 0 0.1 0q0.2-0.1 0.4-0.1q0.1 0 0.2 0q0.3-0.1 0.7-0.1q0.4-0.1 0.8-0.1q0.4-0.1 0.9-0.2q0 0 0.1 0q0.3-0.1 0.6-0.1q0.2-0.1 0.5-0.1q0.1 0 0.3-0.1q0.5-0.1 0.9-0.2q0.1 0 0.2-0.1q0.3 0 0.6-0.1q0 0 0.1 0q0 0 0-0.1q0.1 0 0.1 0q0 0 0 0q0.2 0 0.3-0.1q0.2 0 0.5-0.1q0.1 0 0.2-0.1q0 0 0.1 0q0.1 0 0.2-0.1q0.1 0 0.1 0q0.1 0 0.2 0q0.1-0.1 0.2-0.1q0.5-0.1 1-0.3q1-0.4 2-0.8q1.5-0.5 3-1.2q1.4-0.8 2.8-1.6h0.1l78.9-45.5l64.4-37.2c10.3-6 21.6-8.6 32.7-8.2q0.4 0 0.9 0q0.3 0 0.6 0q0 0 0 0h0.1q0.2 0.1 0.4 0.1q0.2 0 0.3 0q0.1 0 0.2 0q0.2 0 0.5 0l0.4 0.1q0.1 0 0.2 0q0.2 0 0.4 0q0.1 0 0.2 0h0.1q0.1 0.1 0.2 0.1q0.5 0 1 0.1q0.2 0 0.4 0q0.5 0.1 1 0.2q0.3 0 0.5 0.1q0.3 0 0.5 0q0.5 0.1 1 0.2q0.2 0 0.3 0.1q0.1 0 0.1 0q0.2 0 0.3 0q0 0 0 0q0.2 0.1 0.3 0.1q0.1 0 0.3 0q0.1 0.1 0.2 0.1q0.1 0 0.2 0q0.1 0.1 0.1 0.1q0 0 0 0q0.2 0 0.4 0q0.3 0.1 0.7 0.2q0.2 0 0.3 0.1q0.7 0.1 1.5 0.3q0 0 0.1 0.1q0.1 0 0.2 0q0.1 0 0.2 0.1q0.4 0.1 0.7 0.2q0.2 0 0.3 0q0.2 0.1 0.4 0.2q0.1 0 0.1 0q0.3 0.1 0.7 0.2q0 0 0.1 0q0.5 0.2 1 0.4q0.4 0.1 0.8 0.2q0.1 0.1 0.1 0.1q0.2 0.1 0.5 0.1q0.1 0.1 0.1 0.1q0.1 0 0.1 0q0 0 0.1 0q0 0 0 0.1q0.1 0 0.1 0q0.2 0.1 0.4 0.1q0.8 0.3 1.6 0.7q0.3 0.1 0.5 0.2q0.2 0 0.4 0.1q0.5 0.2 1 0.4l0.9 0.5q0.4 0.2 0.9 0.4q0.1 0 0.2 0.1q0.8 0.4 1.6 0.8q0 0 0.1 0q0 0 0 0.1q0.7 0.3 1.4 0.7q0 0 0.1 0.1q0 0 0.1 0q0 0 0.1 0.1q0.1 0 0.2 0.1q0.7 0.4 1.4 0.8q0.7 0.5 1.4 0.9q0.2 0.1 0.3 0.2q0.4 0.3 0.8 0.5q0.3 0.2 0.6 0.5q0.1 0 0.1 0q0 0 0.1 0.1q0 0 0.1 0q0.8 0.6 1.5 1.1q0.1 0.1 0.2 0.2q0.8 0.6 1.5 1.2q0.8 0.6 1.6 1.2q0.7 0.7 1.4 1.3q0.1 0.1 0.1 0.2q0.8 0.6 1.4 1.3q0.4 0.4 0.8 0.7q0.3 0.3 0.6 0.6q0 0.1 0.1 0.2q0.1 0.1 0.2 0.2q0 0 0 0q0.7 0.7 1.3 1.4q0.6 0.7 1.2 1.4q0.4 0.4 0.7 0.8q0.3 0.4 0.6 0.8v0.1q2.6 3.2 4.7 7c5.9 10.2 8.6 21.4 8.3 32.4q0 0.2-0.1 0.3q0 0.7 0 1.5q-0.1 0.6-0.1 1.1q0 0.1 0 0.1q0 0.1 0 0.2q0 0.1 0 0.2q0 0.1 0 0.1q-0.1 0.6-0.2 1.3q0 0.4-0.1 0.9q0 0.1 0 0.3q0 0 0 0.1q0 0 0 0q0 0.1 0 0.1q-0.1 0.2-0.1 0.3q0 0.1 0 0.1q0 0.1 0 0.1q0 0.2-0.1 0.4q0 0.5-0.1 1.1q0 0 0 0q-0.1 0.2-0.1 0.5q0 0.2-0.1 0.5q-0.1 0.5-0.2 1q0 0.1 0 0.2q-0.1 0.3-0.1 0.6q-0.1 0.4-0.2 0.7q-0.1 0.7-0.3 1.3q-0.1 0.3-0.2 0.6q0 0.1 0 0.2q0 0.1-0.1 0.2q0 0.1 0 0.2q-0.2 0.7-0.4 1.3q0 0.2-0.1 0.5q-0.1 0.1-0.1 0.3q-0.1 0.4-0.2 0.8q-0.1 0-0.1 0.1q-0.1 0.3-0.2 0.6q-0.3 0.8-0.6 1.7q0 0.1 0 0.2q-0.2 0.5-0.4 1q-0.1 0.3-0.3 0.6q0 0.1-0.1 0.2q0 0.2-0.1 0.3q-0.1 0.4-0.3 0.8q-0.1 0.2-0.2 0.4q0 0.1-0.1 0.2q0 0.1 0 0.2q-0.1 0.1-0.1 0.2q0 0-0.1 0q0 0.1 0 0.1q0 0 0 0q-0.2 0.4-0.4 0.8q-0.1 0.2-0.2 0.4q0 0.2-0.1 0.4q-0.3 0.6-0.6 1.2q-0.1 0.1-0.2 0.2q0 0.1-0.1 0.2q0 0.2-0.1 0.3q-0.4 0.8-0.8 1.5q0 0-0.1 0.1q-0.3 0.6-0.6 1.1q-0.2 0.4-0.5 0.8q-0.3 0.6-0.7 1.1q-0.1 0.3-0.3 0.5q-0.5 0.7-1 1.4q0 0 0 0.1q-0.1 0-0.1 0.1q-0.2 0.2-0.3 0.4q-0.1 0.2-0.3 0.4q0 0 0 0q0 0 0 0.1q-0.1 0.1-0.2 0.2q0 0 0 0q0 0.1-0.1 0.1q0 0 0 0q0 0 0 0.1q0 0 0 0q-0.1 0.1-0.2 0.2q0 0 0 0q0 0.1-0.1 0.1q-0.2 0.2-0.4 0.5q0 0 0 0.1q-0.1 0-0.1 0.1q0 0 0 0q-0.3 0.3-0.5 0.6q-0.2 0.2-0.3 0.4q-0.4 0.5-0.9 1q-0.1 0.2-0.2 0.3q-0.1 0.1-0.2 0.2q-0.6 0.7-1.2 1.3v0.1q-0.1 0.1-0.2 0.1q-1 1.2-2.1 2.2q-0.2 0.3-0.4 0.4q-0.2 0.3-0.5 0.5q-0.1 0.1-0.2 0.2q-0.4 0.3-0.7 0.6q-0.4 0.4-0.8 0.8q-0.3 0.2-0.6 0.4q-0.2 0.2-0.4 0.4q-0.1 0.1-0.1 0.1q-0.1 0.1-0.2 0.1q-0.4 0.4-0.9 0.7q0 0.1-0.1 0.1q-0.1 0.1-0.1 0.1q0 0.1-0.1 0.1q0 0-0.1 0.1q0 0 0 0q-0.4 0.3-0.7 0.5q-0.3 0.2-0.6 0.4q-0.1 0.1-0.2 0.2q0 0-0.1 0q0 0.1-0.1 0.1q0 0 0 0q-0.1 0.1-0.1 0.1q-0.1 0.1-0.2 0.1q0 0.1 0 0.1q-0.3 0.2-0.5 0.3q-0.1 0.1-0.2 0.2q-0.6 0.3-1.1 0.7q-0.6 0.4-1.3 0.8q-0.1 0.1-0.2 0.2q-0.1 0-0.2 0.1q-0.8 0.5-1.5 0.9l-352.5 203.5q-7.1-6-13.8-12.3v-0.1l144.9-83.6c-38.1 2.3-76.6-8.3-108.7-31.4c-19.2-13.9-35.1-31.5-47.1-52.3c-12-20.7-19.3-43.3-21.7-66.9c-6.7-65.7 26-129.6 83.2-162.6l299.5-172.9q10.6 3.8 20.9 8.2l-311.6 179.9q-2.7 1.6-5.3 3.2q-1.1 0.7-2.2 1.4q-0.4 0.3-0.7 0.5q-0.2 0.1-0.4 0.2q-0.3 0.3-0.6 0.5q-0.6 0.4-1.2 0.8q-0.6 0.4-1.1 0.8q-0.4 0.2-0.7 0.5q0 0 0 0q-0.4 0.2-0.7 0.4q-0.1 0.1-0.2 0.2q-1 0.7-2 1.4q-2 1.5-4 3.1q-0.1 0.2-0.3 0.3q-0.8 0.7-1.6 1.3q0 0 0 0q-1 0.9-2 1.7q-0.9 0.8-1.9 1.6q-0.9 0.9-1.8 1.7q0 0 0 0q-0.7 0.6-1.4 1.3q-0.2 0.2-0.4 0.4h-0.1q-0.9 0.9-1.7 1.8q-0.9 0.8-1.8 1.7q-0.7 0.8-1.4 1.5q-0.4 0.3-0.7 0.7q-0.1 0.1-0.2 0.2q-0.3 0.3-0.6 0.6q-0.2 0.3-0.5 0.6q-0.7 0.8-1.4 1.5q-0.1 0.2-0.3 0.3q-0.3 0.4-0.6 0.8q-0.3 0.3-0.6 0.7q-0.3 0.3-0.6 0.6q-0.3 0.4-0.6 0.7q-0.3 0.4-0.7 0.8l-0.1 0.2q-0.8 1-1.6 1.9q-0.1 0.2-0.3 0.4q-0.1 0.1-0.2 0.2q-0.3 0.4-0.6 0.8q-0.2 0.2-0.3 0.4q-0.1 0.1-0.1 0.1q-0.4 0.5-0.8 1q-0.1 0.2-0.2 0.3q-0.2 0.3-0.5 0.7q-0.3 0.3-0.5 0.7q-0.1 0.1-0.2 0.2q0 0-0.1 0.1q-0.1 0.1-0.1 0.2q-0.2 0.2-0.3 0.4q-0.2 0.3-0.4 0.5q-0.2 0.3-0.4 0.6q-0.5 0.7-0.9 1.3q-0.7 1-1.4 2q-0.6 0.9-1.3 1.9q-0.7 1.1-1.4 2.2q-0.6 1-1.3 2q-0.6 1.1-1.2 2.1q-0.3 0.6-0.7 1.2q-0.2 0.5-0.5 0.9q-0.1 0.1-0.1 0.3q-0.1 0-0.1 0.1q0 0 0 0q-0.1 0.1-0.1 0.2q-0.1 0.1-0.2 0.3q-0.1 0.1-0.1 0.2q-0.2 0.3-0.3 0.6q-0.8 1.3-1.4 2.6q-0.6 1.1-1.2 2.2q-1 2.2-2.1 4.4q-1 2.2-1.9 4.4q-0.6 1.3-1.1 2.5q-0.2 0.6-0.4 1.1q-0.2 0.5-0.4 0.9q0 0.2-0.1 0.4q-0.3 0.7-0.5 1.3q-0.1 0.1-0.1 0.3q-0.1 0.1-0.1 0.3q-0.3 0.7-0.5 1.4q-0.1 0.3-0.2 0.6q-0.1 0.1-0.1 0.2q-0.4 1.2-0.8 2.3q-0.4 1.2-0.8 2.3q-0.1 0.6-0.3 1.2q-0.1 0.2-0.2 0.5q-0.1 0.3-0.2 0.7q0 0 0 0q0 0.2-0.1 0.3q0 0.2-0.1 0.5q-0.2 0.7-0.4 1.5q-0.7 2.3-1.3 4.7q-0.3 1.1-0.5 2.3q-0.6 2.4-1 4.7q-0.5 2.4-0.9 4.8q-0.2 1.2-0.4 2.4q-0.1 0.6-0.1 1.3q-0.1 0.2-0.1 0.5q0 0 0 0q-0.1 0.3-0.1 0.6q0 0.2 0 0.3q-0.1 0.2-0.1 0.3q-0.2 1.5-0.3 3q-0.2 1.5-0.3 3q0 0.2 0 0.4q0 0.1-0.1 0.3q0 1-0.1 1.9q0 0.3 0 0.5q-0.1 0.6-0.1 1.2q0 0.6-0.1 1.2q0 0.2 0 0.3q0 0.8 0 1.5q-0.1 0.3-0.1 0.6q0 0.2 0 0.3q0 1 0 2.1v0.1q0 0.4 0 0.8q0 1 0 2q0 0.6 0 1.2q0 0.6 0 1.2v0.1q0 0.5 0 0.9q0 1 0.1 1.9q0 0.1 0 0.1q0 0.4 0 0.7q0 0.4 0 0.8q0 0.3 0.1 0.7q0 0.1 0 0.2q0 0.2 0 0.4q0 0.3 0 0.6q0.1 1.1 0.2 2.2q0.1 1.9 0.3 3.8q0.2 2 0.5 3.9q0.2 1.9 0.5 3.8q0.3 1.9 0.6 3.9q0.2 0.9 0.4 1.9q0.2 0.9 0.4 1.9q0.2 0.9 0.4 1.9q0.2 0.9 0.4 1.9q0.3 1 0.5 1.9q0.1 0.5 0.3 1q0 0.1 0 0.1q0 0.1 0 0.2q0.3 1 0.5 1.9q0.1 0.1 0.1 0.2q0 0.2 0.1 0.4q0.1 0.5 0.3 1q0 0.2 0.1 0.4q0 0.1 0.1 0.3q0 0.1 0 0.2q0.3 0.8 0.5 1.7q0.1 0.2 0.2 0.5q0.1 0.4 0.3 0.9q0.1 0.3 0.2 0.7q0.1 0.2 0.1 0.4q0.1 0.3 0.2 0.5q0.2 0.8 0.5 1.6q0.1 0.2 0.1 0.4q0.1 0 0.1 0.1q0 0.1 0.1 0.2q0 0.1 0 0.1q0 0.1 0.1 0.2q0 0.1 0 0.2q0.2 0.4 0.3 0.8q0.2 0.5 0.4 1.1q0.3 0.9 0.7 1.8v0.1q0.2 0.5 0.4 1q0.5 1.3 1.1 2.7q0 0 0 0q1.5 3.7 3.2 7.3q0.5 0.9 0.9 1.8q0.1 0.3 0.3 0.6q0.7 1.5 1.5 3q0.3 0.5 0.6 1q0.5 1 1 1.9q0.7 1.3 1.4 2.6q0.7 1.2 1.5 2.4q0.8 1.4 1.7 2.8q0.6 0.9 1.1 1.7q0.7 1.1 1.4 2.2q0.3 0.4 0.6 0.8q0 0 0 0q0.1 0.2 0.3 0.4q0.5 0.8 1.1 1.6q0.6 0.9 1.2 1.7q0.3 0.4 0.6 0.8q0.7 0.9 1.4 1.8q0.2 0.3 0.4 0.6q0.1 0.1 0.1 0.2q0.3 0.3 0.5 0.6q0.3 0.4 0.6 0.8q0.2 0.1 0.3 0.3q0.5 0.6 1 1.2q0.4 0.5 0.8 1q0.2 0.3 0.5 0.6q0.1 0.2 0.3 0.3q0.5 0.6 0.9 1.2q0.7 0.7 1.3 1.4q0.1 0.1 0.1 0.2q0.5 0.5 0.9 1q0.2 0.2 0.4 0.3q0.6 0.8 1.3 1.5q1.3 1.5 2.7 2.8q0.1 0.1 0.2 0.2q0.9 1 1.9 1.9q0.1 0.2 0.3 0.3q0.2 0.2 0.3 0.3q0.1 0.1 0.1 0.1q0 0 0 0q0 0 0 0q0.3 0.3 0.6 0.6l0.1 0.1q0.4 0.3 0.7 0.7q0.3 0.3 0.6 0.5q0.2 0.2 0.5 0.4q0.4 0.5 0.9 0.9q0.5 0.4 0.9 0.8q0.4 0.3 0.7 0.6q0.5 0.5 1 0.9q0.7 0.6 1.3 1.1q0.2 0.2 0.5 0.4q0.1 0.1 0.2 0.2q0.4 0.3 0.8 0.6q0.1 0.2 0.3 0.3q0.4 0.3 0.8 0.7q0.2 0.1 0.3 0.2q0.2 0.2 0.4 0.3q0.1 0.1 0.3 0.2q0.4 0.4 0.9 0.7q0.8 0.6 1.5 1.2q0.1 0.1 0.2 0.2q0.7 0.5 1.4 1q0.5 0.4 1.1 0.8q0.2 0.2 0.4 0.3q1.2 0.9 2.5 1.7q2.4 1.8 4.9 3.3q1.3 0.8 2.5 1.6q0.6 0.3 1.2 0.7q0.5 0.3 1.1 0.6q0.5 0.3 1 0.6q0.9 0.6 1.8 1.1q5.2 2.8 10.5 5.3q1.6 0.7 3.1 1.3q0.4 0.2 0.7 0.3q0.8 0.4 1.7 0.7q1.3 0.6 2.7 1.1q1 0.4 2 0.8q0 0 0 0q0.2 0.1 0.4 0.1q0.1 0.1 0.3 0.1q0.5 0.2 1 0.4q0.3 0.1 0.6 0.2q2 0.7 4 1.3q0.1 0.1 0.1 0.1q0.2 0.1 0.4 0.1q1 0.3 2 0.6q0.2 0.1 0.4 0.2q0.5 0.1 1.1 0.3q0 0 0 0q0.3 0.1 0.5 0.1q0.8 0.3 1.5 0.4q0.7 0.2 1.4 0.4q0.5 0.2 1 0.3q1 0.3 2 0.5q0.1 0 0.3 0.1q0.3 0 0.6 0.1q0 0 0 0q0.4 0.1 0.8 0.2q0.8 0.2 1.6 0.4q0.1 0 0.2 0q0.1 0 0.2 0q0.2 0.1 0.3 0.1q0.1 0 0.1 0q0.1 0.1 0.3 0.1q0 0 0 0q0 0 0 0q0.9 0.2 1.8 0.4q0.1 0 0.1 0q0.2 0 0.3 0q0.3 0.1 0.7 0.2q1.5 0.3 3 0.5q0.4 0.1 0.7 0.2q0.7 0.1 1.4 0.2q0.1 0 0.2 0q1.3 0.2 2.7 0.4q0.8 0.1 1.6 0.2q0.7 0.1 1.3 0.2q1.3 0.1 2.5 0.3q0.3 0 0.6 0q1.2 0.1 2.5 0.2q0.1 0.1 0.3 0.1q0.3 0 0.5 0q0.1 0 0.2 0q0.9 0.1 1.9 0.1q0.3 0.1 0.7 0.1q0.3 0 0.7 0q0.7 0.1 1.4 0.1q0.3 0 0.6 0q1.4 0.1 2.8 0.1q1.5 0 3 0q1.5 0 3 0q0.2 0 0.5 0q0.1 0 0.2 0q0.4 0 0.7 0q0.3 0 0.6-0.1q0.1 0.1 0.1 0q0.1 0.1 0.1 0q0.1 0 0.2 0q0 0 0 0q0.3 0 0.7 0q0.2 0 0.5 0q0.4 0 0.7-0.1q0.5 0 1 0q1.5-0.1 3-0.2q0.4 0 0.8-0.1q0 0 0.1 0q0.4 0 0.9-0.1q0 0 0 0q0.1 0.1 0.1 0q1.1 0 2.2-0.2q0.8 0 1.7-0.2q0.9 0 1.9-0.2q0.4 0 0.9-0.1q0.3 0 0.6-0.1q0.4 0 0.7-0.1q0.1 0 0.1 0q0.2 0 0.4-0.1q0.2 0 0.4 0q0.8-0.1 1.7-0.3q0.4 0 0.8-0.1q0.8-0.1 1.7-0.3q0.3 0 0.6-0.1q0.2 0 0.4-0.1q0.3 0 0.7-0.1q0.8-0.1 1.5-0.3q0.4-0.1 0.8-0.2q0.3 0 0.5-0.1q0.1 0 0.2 0q0.5-0.1 1-0.2q0.5-0.1 1.1-0.3q0 0 0 0q0.2 0 0.4-0.1q0.2 0 0.3 0q0.1-0.1 0.2-0.1q0.4-0.1 0.8-0.2q0.2 0 0.5-0.1q0.3-0.1 0.7-0.2q0.2 0 0.3-0.1q1.1-0.2 2.1-0.5q0.5-0.1 0.9-0.2q0.2-0.1 0.3-0.1q1.1-0.3 2.2-0.6q0.2-0.1 0.4-0.2q0.2 0 0.4-0.1q0.8-0.2 1.6-0.4q0.1-0.1 0.3-0.1q0.2-0.1 0.4-0.2q0.3-0.1 0.6-0.2q0.2 0 0.5-0.1q0 0 0.1-0.1q1.1-0.3 2.2-0.7q1.1-0.3 2.2-0.7q2.1-0.8 4.2-1.6q0 0 0 0q1.1-0.5 2.2-0.9q0.5-0.2 1-0.4q0.6-0.3 1.1-0.5q0.2-0.1 0.4-0.2q0.9-0.3 1.7-0.7q0.7-0.3 1.5-0.7q0.3-0.1 0.6-0.3q0.3-0.1 0.6-0.2q0.7-0.4 1.5-0.8q0 0 0 0q0.3-0.1 0.5-0.2q0.1-0.1 0.2-0.1q0.2-0.1 0.4-0.2q0 0 0.1-0.1q0 0 0.1 0q0 0 0.1 0q0-0.1 0.1-0.1q0 0 0.1 0q0-0.1 0.1-0.1q0.1 0 0.1-0.1q0.2 0 0.3-0.1q1-0.5 1.9-1l-5.9 3.4l-3.1 1.8l-2.8 1.6q0.6-0.3 1.2-0.6q0.4-0.2 0.8-0.4q1.7-0.9 3.4-1.9l143.3-82.8q1.5-0.8 2.9-1.8l12.2-7q0.7-0.5 1.4-1.1q0.2-0.1 0.3-0.2q0.2-0.1 0.3-0.2q0.1 0 0.1 0q0.3-0.3 0.7-0.6q0 0 0.1-0.1q0 0 0 0q0.1 0 0.1-0.1q0.1 0 0.1-0.1q0.1 0 0.1-0.1h0.1q0-0.1 0.1-0.1q0.3-0.2 0.6-0.5q0.1-0.1 0.3-0.3q0 0 0.1-0.1q0.2-0.1 0.4-0.3q0 0 0.1-0.1q0 0 0 0q0 0 0-0.1q0.1 0 0.1 0q0.2-0.2 0.5-0.5q0.4-0.3 0.7-0.7q0.1-0.1 0.2-0.2q0.6-0.6 1.2-1.2q0 0 0.1-0.1q0.5-0.5 1-1.1q0-0.1 0.1-0.2q0.2-0.2 0.3-0.4q0.4-0.4 0.8-0.9q0.1-0.2 0.3-0.4q0.5-0.6 0.9-1.2q0-0.1 0.1-0.2q0 0 0.1-0.1q0 0 0 0q0.5-0.8 1.1-1.6q0.4-0.7 0.8-1.3q0.1-0.2 0.2-0.4q0.3-0.6 0.7-1.3q0.1-0.2 0.2-0.4q0.2-0.4 0.4-0.8q0.2-0.5 0.4-0.9q0.4-0.9 0.8-1.8q0.4-0.9 0.7-1.8q0.2-0.4 0.3-0.9q0.2-0.4 0.3-0.7q0-0.1 0-0.2q0.3-0.9 0.6-1.9q0.2-1 0.5-2.1q0 0 0 0q0.2-1 0.3-1.9q0.1-0.2 0.1-0.4q0.1-0.8 0.2-1.6q0.1-0.3 0.1-0.5q0.1-0.9 0.1-1.7q0.1-0.2 0.1-0.4q0.1-1.4 0.1-2.9q0-0.6 0-1.3q0 0-0.1-0.1q0-0.4 0-0.9v-0.1q0-0.1 0-0.2q-0.1-1.5-0.3-3q0-0.3-0.1-0.5q0-0.3 0-0.6q-0.2-1.3-0.5-2.6q-0.1-0.1-0.1-0.2q-0.1-0.6-0.3-1.3q0 0 0-0.1q-0.1-0.4-0.2-0.8q-0.1-0.2-0.1-0.3q-0.1-0.5-0.3-1q-0.1-0.3-0.2-0.7q-0.1-0.2-0.1-0.3q-0.2-0.4-0.3-0.8q-0.1-0.3-0.2-0.6q-0.3-0.7-0.6-1.4q-1.1-2.7-2.6-5.4q-0.8-1.3-1.6-2.6q-0.3-0.4-0.7-0.9q0 0 0 0q0-0.1 0-0.1q-0.3-0.4-0.6-0.8q-0.3-0.4-0.6-0.8q-0.1-0.1-0.1-0.1q-0.1-0.1-0.1-0.1q-0.1-0.1-0.1-0.2q-0.3-0.3-0.5-0.6q-0.5-0.6-1-1.1q-0.4-0.4-0.7-0.8q-0.4-0.4-0.8-0.8q-0.4-0.4-0.8-0.8q-0.3-0.3-0.7-0.7q0 0-0.1-0.1q-0.4-0.3-0.8-0.7q-0.1-0.1-0.2-0.2q-0.1 0-0.1 0q-1.6-1.4-3.2-2.6q-0.1 0-0.2-0.1q-0.1 0-0.1-0.1q-0.4-0.2-0.8-0.5q-0.4-0.3-0.8-0.5q-0.1-0.1-0.2-0.2q-0.7-0.4-1.4-0.8q-1.7-1-3.4-1.8q-0.8-0.3-1.5-0.7q-0.8-0.3-1.6-0.6q-0.3-0.1-0.6-0.2q-0.2-0.1-0.5-0.2q-0.5-0.2-1.1-0.3q-1.6-0.6-3.2-1q-0.1 0-0.2 0q-1.6-0.4-3.3-0.6q-0.2-0.1-0.4-0.1q-1.8-0.3-3.6-0.4q-0.7 0-1.5-0.1q-0.3 0-0.6 0h-0.3q-0.4 0-0.9 0h-0.2q-0.1 0-0.2 0q-0.7 0-1.5 0.1q-0.1 0-0.2 0q-0.1 0-0.1 0q-0.3 0-0.7 0q0 0-0.1 0q-0.3 0.1-0.5 0.1q-0.1 0-0.2 0q-0.1 0-0.2 0q-0.3 0.1-0.6 0.1q-0.1 0-0.1 0q-0.4 0.1-0.8 0.1q-0.9 0.1-1.8 0.3q-0.1 0-0.2 0q0 0 0 0q-0.2 0.1-0.4 0.1q-0.6 0.1-1.2 0.2q-0.1 0.1-0.1 0.1q-0.5 0.1-0.9 0.2q-0.1 0-0.1 0q-0.4 0.1-0.7 0.2q-0.1 0-0.2 0q-0.1 0.1-0.3 0.1q-0.4 0.1-0.8 0.2q-0.1 0.1-0.2 0.1q0 0-0.1 0q0 0 0 0q0 0 0 0q-0.2 0.1-0.5 0.2q-0.6 0.2-1.2 0.4q0 0 0 0q-0.1 0-0.1 0q-0.2 0.1-0.4 0.2q-0.2 0.1-0.3 0.2q-0.1 0-0.1 0q-0.5 0.3-1 0.5q-0.4 0.3-0.8 0.5q-0.1 0-0.3 0.1l-10.9 6.1l-0.1 0.1q-0.2 0.1-0.5 0.2q-0.2 0-0.3 0.1q-0.1 0.1-0.3 0.1q-0.4 0.2-0.9 0.4q-0.5 0.2-0.9 0.4q-1.5 0.7-2.9 1.6q0 0 0 0l-131.2 75.7q-0.7 0.4-1.6 0.9q-0.2 0.1-0.5 0.3q-0.8 0.4-1.5 0.7q0 0 0 0q-0.6 0.3-1.2 0.6q-0.2 0.1-0.4 0.2q-0.1 0-0.3 0.1q0 0 0 0q-0.8 0.4-1.6 0.7q-0.1 0.1-0.3 0.1q-0.1 0.1-0.2 0.1q-0.5 0.2-1 0.4q-0.3 0.1-0.7 0.3q-0.2 0.1-0.4 0.1q-0.7 0.3-1.5 0.5q-0.6 0.2-1.2 0.4q0 0.1-0.1 0.1q-0.5 0.1-1.1 0.3q-0.1 0-0.1 0q-0.5 0.2-0.9 0.3q-0.1 0-0.2 0q-0.3 0.1-0.6 0.2q-0.1 0-0.2 0q0 0.1-0.1 0.1q0 0-0.1 0q-0.2 0.1-0.3 0.1q-0.2 0-0.5 0.1q0 0 0 0q-0.3 0.1-0.6 0.1l-1 0.3q-0.2 0-0.4 0q-0.1 0.1-0.3 0.1q-0.1 0-0.2 0q0 0.1-0.1 0q0 0.1-0.1 0.1q0 0 0 0q-0.1 0-0.1 0h-0.3q-0.1 0.1-0.4 0.1q-0.1 0-0.2 0q-0.2 0.1-0.4 0.1q-0.1 0-0.2 0.1q-0.1 0-0.2 0q-0.1 0-0.2 0q-0.4 0.1-0.8 0.1q0 0 0 0q-0.2 0.1-0.5 0.1q-0.1 0-0.2 0q-0.3 0.1-0.5 0.1q-0.6 0.1-1.2 0.1q-0.4 0.1-0.8 0.1q-0.1 0-0.1 0q-0.2 0-0.4 0q-0.6 0.1-1.2 0.1q-0.1 0-0.2 0q0 0-0.1 0h-0.1q-0.1 0.1-0.2 0.1q-0.3 0-0.6 0q-0.1 0-0.2 0q-0.2 0-0.3 0q-0.2 0-0.4 0q-0.2 0-0.4 0q-0.5 0-1 0h-0.4q-0.6 0-1.1 0h-0.3q-0.1 0-0.2 0q-0.3 0-0.6 0q0 0-0.1 0q-0.2 0-0.3 0q-0.2 0-0.3 0q-0.2-0.1-0.3-0.1q-0.1 0-0.2 0q-0.1 0-0.1 0q-0.1 0-0.1 0q-0.2 0-0.3 0q-0.1 0-0.2 0h-0.1q0 0-0.1 0q-0.1 0-0.1 0q-0.8-0.1-1.6-0.2q-0.4 0-0.8-0.1q-0.3 0-0.7-0.1q-0.2 0-0.4 0q-0.1 0-0.2 0q-0.1 0-0.2-0.1q-0.2 0-0.3 0q-0.1 0-0.1 0q-0.2 0-0.4-0.1q-0.2 0-0.3 0q-0.1 0-0.1 0q0 0-0.1 0q-0.1-0.1-0.2-0.1q-0.1 0-0.1 0q-0.1 0-0.2 0q-0.2-0.1-0.5-0.1q-0.3-0.1-0.5-0.1q-0.4-0.1-0.9-0.2q0 0 0 0q-0.4-0.1-0.8-0.2q-0.3 0-0.5-0.1q-0.2 0-0.3 0q0-0.1-0.1-0.1q0 0.1 0 0q-0.1 0-0.3 0q0 0-0.1 0q0-0.1-0.1-0.1q-0.5-0.1-0.9-0.2q-0.2 0-0.4-0.1q-0.7-0.2-1.5-0.4q0 0 0 0q-0.2-0.1-0.4-0.1q0 0-0.1-0.1q-0.2 0-0.4-0.1q-0.1 0-0.2-0.1q-0.4-0.1-0.7-0.2q-0.3 0-0.5-0.1q-0.1-0.1-0.3-0.1q-0.7-0.3-1.5-0.5q-0.7-0.3-1.4-0.6q-0.2-0.1-0.4-0.2q-0.2 0-0.3-0.1q-0.4-0.1-0.7-0.3q-0.4-0.1-0.7-0.3q-0.1 0-0.1 0q-1-0.5-2-0.9q0-0.1-0.1-0.1q-0.7-0.3-1.4-0.7q-0.3-0.1-0.6-0.3q0 0 0 0q0 0-0.1 0q0 0 0 0q-0.2-0.1-0.4-0.3q0 0-0.1 0q-0.1-0.1-0.2-0.1q-0.6-0.4-1.2-0.7q-0.1-0.1-0.2-0.1q-0.5-0.3-0.9-0.6q-0.2 0-0.3-0.1q-0.3-0.2-0.6-0.4q0 0-0.1-0.1q-0.3-0.2-0.7-0.4q0 0 0 0q-0.4-0.3-0.9-0.6q-0.2-0.2-0.5-0.4q-0.4-0.2-0.8-0.5q-0.1-0.1-0.3-0.3q-0.4-0.2-0.8-0.5q-0.1-0.1-0.2-0.2q-0.3-0.2-0.6-0.5q-0.3-0.2-0.6-0.5q-0.1 0-0.2-0.1q0 0 0 0q-0.7-0.5-1.3-1.1q-0.1-0.1-0.2-0.2q-0.4-0.3-0.8-0.6q-0.2-0.2-0.4-0.4q-0.2-0.2-0.4-0.3q-0.2-0.2-0.4-0.4q-0.2-0.2-0.4-0.4q-0.1-0.1-0.3-0.3q-0.2-0.2-0.3-0.3q-0.2-0.2-0.3-0.3q-0.6-0.6-1.2-1.2q0 0 0 0q-0.6-0.7-1.3-1.4q0-0.1-0.1-0.1q-0.1-0.1-0.2-0.2q-0.5-0.7-1-1.3q-0.2-0.2-0.3-0.4q-0.4-0.4-0.9-1q-0.1-0.1-0.2-0.2q0-0.1 0-0.1q-0.2-0.2-0.3-0.4q-0.3-0.4-0.7-0.9q-0.1-0.2-0.3-0.4q0-0.1-0.1-0.1q-0.4-0.7-0.8-1.3q-0.2-0.3-0.4-0.5q-0.2-0.4-0.4-0.7q-0.3-0.4-0.6-0.9q-0.6-0.9-1.1-1.8q-0.1-0.1-0.2-0.3q-0.3-0.5-0.6-1.1q-0.1-0.1-0.2-0.3q-0.1-0.3-0.3-0.6q-0.1-0.3-0.2-0.5q-0.3-0.5-0.5-0.9q-0.4-0.9-0.8-1.8q-0.5-1-0.9-1.9q-0.3-1-0.7-1.9q-0.1-0.2-0.1-0.4q-0.2-0.3-0.3-0.6q-0.1-0.3-0.2-0.6q-0.1-0.5-0.3-0.9q-0.4-1.4-0.8-2.7q0-0.2 0-0.3q-0.1-0.3-0.2-0.6q0-0.1-0.1-0.3q-0.1-0.2-0.1-0.5q-0.1-0.4-0.2-0.8q-0.5-2-0.8-3.9q-0.1-1-0.3-2q-0.1-1-0.2-1.9q-0.2-2-0.2-4q-0.1-0.9-0.1-1.9q0-0.9 0.1-1.7q0-0.3 0-0.5v-0.1q0-0.8 0.1-1.7q0-0.6 0.1-1.1q0-0.3 0-0.6q0-0.1 0-0.3q0-0.1 0.1-0.2q0-0.3 0-0.6q0.1-0.4 0.1-0.8q0-0.1 0-0.2q0.1-0.4 0.1-0.8q0 0 0.1-0.1q0-0.6 0.1-1.2q0-0.1 0.1-0.1q0.1-0.9 0.3-1.8q0-0.1 0-0.1q0.2-0.9 0.4-1.8q0-0.1 0-0.2q0.2-0.9 0.5-1.8q0.2-1 0.5-2q0.2-0.8 0.5-1.5q0.1-0.4 0.2-0.7q0 0 0-0.1q0.2-0.4 0.4-0.9q0-0.1 0-0.1q0-0.1 0.1-0.1q0-0.1 0-0.1q0-0.1 0-0.1q0-0.1 0.1-0.2q0.1-0.2 0.1-0.4q0.1-0.3 0.3-0.6q0.1-0.3 0.2-0.6q0.1-0.2 0.2-0.4q0.3-0.7 0.6-1.4q0-0.1 0-0.2q0.2-0.2 0.2-0.4q0.4-0.7 0.7-1.4q0 0 0-0.1q0.4-0.7 0.7-1.4q0.1-0.1 0.2-0.3l0.2-0.3q0 0 0-0.1q0.1-0.3 0.3-0.5q0.2-0.4 0.4-0.8q0 0 0 0q0.1-0.1 0.1-0.1q0.2-0.3 0.3-0.7q0.3-0.3 0.5-0.7q0.2-0.3 0.3-0.5q0.1-0.1 0.1-0.2q0.4-0.6 0.8-1.2q0.4-0.7 0.9-1.4q0 0 0 0q0.1-0.2 0.2-0.3q0.3-0.5 0.7-0.9q0-0.1 0.1-0.1q0.1-0.3 0.3-0.5q0.1-0.1 0.1-0.1q0-0.1 0.1-0.1q0.4-0.6 0.9-1.2q0 0 0 0q0.1-0.2 0.3-0.3q1.2-1.6 2.6-3.1q0.8-0.9 1.7-1.8q0.4-0.4 0.9-0.8q0.2-0.2 0.4-0.4q0.7-0.7 1.4-1.3q0 0 0 0q0.6-0.6 1.3-1.1q0 0 0.1-0.1q0 0 0-0.1q0.1 0 0.1 0q0.4-0.4 0.8-0.7q0.1-0.1 0.2-0.1q0.1-0.1 0.1-0.1q0.4-0.3 0.8-0.6q0 0 0.1-0.1q0 0 0.1 0q0.4-0.3 0.8-0.6q0.2-0.2 0.4-0.4q0.2-0.1 0.4-0.3q0.6-0.4 1.1-0.7q0.1-0.1 0.2-0.2q1.8-1.2 3.6-2.2l153.6-88.7q1.2-0.6 2.4-1.2l13.3-7.6q-1.6 0.8-3.1 1.6q0 0-0.1 0l0.1-0.1l92.5-53.3l93.9-54.3q7 6 13.7 12.4l-144.9 83.6c38.1-2.3 76.6 8.3 108.7 31.5c19.2 13.9 35.1 31.4 47.1 52.2c12 20.8 19.3 43.3 21.7 67c6.7 65.7-26 129.5-83.2 162.6z" /><path class="s0" d="m821.5 83.5l-150.7 87q-6.9-6.2-14.2-12.1l156.1-90.2c12.9-7.4 17.3-23.8 9.8-36.7c-7.4-12.8-23.8-17.2-36.6-9.8l-178.2 102.9q-8.9-5.2-18.1-9.9l187.5-108.2c21.2-12.3 48.4-5 60.7 16.2c12.2 21.3 5 48.5-16.3 60.8z" /><path class="s0" d="m272.7 770.5q3.7 1.8 7.5 3.4q-3.8-1.6-7.5-3.4z" /><path class="s0" d="m290.3 778.1q-2.5-1-5.1-2.1q2.6 1.1 5.1 2.1z" /><path class="s0" d="m187 714.8q-6.9-6-13.5-12.5q6.6 6.4 13.5 12.5z" /><path class="s0" d="m541.3 438.8c7.4 12.8 3 29.3-9.8 36.7l-143.3 82.7c-45.3 26.2-101.9 23.3-144.3-7.3c-15.2-11-27.8-24.9-37.3-41.3c-9.4-16.5-15.2-34.3-17.1-53c-5.3-52 20.5-102.5 65.8-128.6l322.1-185.9c18.1 9.2 35.3 20.1 51.4 32.3l-346.6 200.2c-37.8 21.8-50.8 70.3-29 108.1c21.8 37.8 70.4 50.8 108.1 29l119-68.7l24.3-14c12.9-7.4 29.3-3 36.7 9.8z" /><path class="s0" d="m589 565l-322 186c-18.2-9.3-35.4-20.1-51.4-32.4l346.6-200.1c37.8-21.8 50.8-70.3 28.9-108.1c-21.8-37.9-70.3-50.9-108.1-29l-119 68.6l-24.3 14.1c-12.8 7.4-29.3 2.9-36.7-9.9c-7.4-12.8-3-29.2 9.8-36.6l143.3-82.8c45.3-26.1 101.9-23.2 144.3 7.4c15.3 10.9 27.8 24.8 37.3 41.3c9.5 16.4 15.2 34.2 17.1 52.9c5.3 52-20.5 102.5-65.8 128.6z" /></svg>